<?xml version="1.0" encoding="utf-8"?>
<!-- Generator: Adobe Illustrator 22.1.0, SVG Export Plug-In . SVG Version: 6.00 Build 0)  -->
<svg version="1.1" id="Layer_1" xmlns="http://www.w3.org/2000/svg" xmlns:xlink="http://www.w3.org/1999/xlink" x="0px" y="0px"
	 viewBox="0 0 63.7 63.7" style="enable-background:new 0 0 63.7 63.7;" xml:space="preserve">
<style type="text/css">
	.st0{fill:#2996FC;}
</style>
<path class="st0" d="M5.9,31.8c0-14.3,11.6-25.9,25.9-25.9s25.9,11.6,25.9,25.9S46.1,57.7,31.8,57.7S5.9,46.1,5.9,31.8 M3.3,31.8
	c0,15.7,12.8,28.5,28.5,28.5s28.5-12.8,28.5-28.5S47.5,3.3,31.8,3.3S3.3,16,3.3,31.8L3.3,31.8z"/>
<g>
	<rect x="22.5" y="30.5" class="st0" width="17.3" height="2.6"/>
	<polygon class="st0" points="41.2,31.8 35,37.7 33.2,35.8 37.5,31.8 33.2,27.7 35,25.8 	"/>
</g>
</svg>
