<?xml version="1.0" encoding="utf-8"?>
<!-- Generator: Adobe Illustrator 22.1.0, SVG Export Plug-In . SVG Version: 6.00 Build 0)  -->
<svg version="1.1" id="Layer_1" xmlns="http://www.w3.org/2000/svg" xmlns:xlink="http://www.w3.org/1999/xlink" x="0px" y="0px"
	 viewBox="0 0 81.2 81.2" style="enable-background:new 0 0 81.2 81.2;" xml:space="preserve">
<style type="text/css">
	.st0{fill:#182D56;}
</style>
<path class="st0" d="M40.6,0.6c-22,0-40,17.8-40,40c0,22,18,40,40,40s40-18,40-40S62.7,0.6,40.6,0.6z M40.6,77
	C20.6,77,4.3,60.7,4.3,40.6S20.6,4.3,40.6,4.3C60.7,4.3,77,20.6,77,40.6S60.7,77,40.6,77z"/>
<path class="st0" d="M40.6,9.9c-17,0-30.7,13.8-30.7,30.7c0,17,13.8,30.7,30.7,30.7c17,0,30.7-13.8,30.7-30.7
	C71.3,23.7,57.6,9.9,40.6,9.9z M45.1,48.9l-2.5-2.7l4.1-3.8H27.6v-3.6h19.1l-4.1-3.9l2.5-2.7l8.7,8.4L45.1,48.9z"/>
</svg>
