<?xml version="1.0" encoding="utf-8"?>
<!-- Generator: Adobe Illustrator 22.1.0, SVG Export Plug-In . SVG Version: 6.00 Build 0)  -->
<svg version="1.1" id="Layer_1" xmlns="http://www.w3.org/2000/svg" xmlns:xlink="http://www.w3.org/1999/xlink" x="0px" y="0px"
	 viewBox="0 0 63.7 63.7" style="enable-background:new 0 0 63.7 63.7;" xml:space="preserve">
<style type="text/css">
	.st0{fill:#2996FC;}
</style>
<path class="st0" d="M57.7,31.8c0,14.3-11.6,25.9-25.9,25.9S5.9,46.1,5.9,31.8S17.5,5.9,31.8,5.9S57.7,17.5,57.7,31.8 M60.3,31.8
	c0-15.7-12.8-28.5-28.5-28.5S3.3,16.1,3.3,31.8s12.8,28.5,28.5,28.5S60.3,47.6,60.3,31.8L60.3,31.8z"/>
<g>
	<rect x="23.8" y="30.5" class="st0" width="17.3" height="2.6"/>
	<polygon class="st0" points="22.4,31.8 28.6,25.9 30.4,27.8 26.1,31.8 30.4,35.9 28.6,37.8 	"/>
</g>
</svg>
