<?xml version="1.0" encoding="utf-8"?>
<!-- Generator: Adobe Illustrator 22.1.0, SVG Export Plug-In . SVG Version: 6.00 Build 0)  -->
<svg version="1.1" id="Layer_1" xmlns="http://www.w3.org/2000/svg" xmlns:xlink="http://www.w3.org/1999/xlink" x="0px" y="0px"
	 viewBox="0 0 63.7 63.7" style="enable-background:new 0 0 63.7 63.7;" xml:space="preserve">
<style type="text/css">
	.st0{fill:#2996FC;}
</style>
<path class="st0" d="M31.8,5.9c14.3,0,25.9,11.6,25.9,25.9S46.1,57.7,31.8,57.7S5.9,46.1,5.9,31.8S17.5,5.9,31.8,5.9 M31.8,3.3
	C16.1,3.3,3.3,16.1,3.3,31.8s12.8,28.5,28.5,28.5s28.5-12.8,28.5-28.5S47.6,3.3,31.8,3.3L31.8,3.3z"/>
<g>
	<rect x="30.5" y="22.5" class="st0" width="2.6" height="17.3"/>
	<polygon class="st0" points="31.8,41.2 25.9,35 27.8,33.2 31.8,37.5 35.9,33.2 37.8,35 	"/>
</g>
</svg>
