<?xml version="1.0" encoding="utf-8"?>
<!-- Generator: Adobe Illustrator 22.1.0, SVG Export Plug-In . SVG Version: 6.00 Build 0)  -->
<svg version="1.1" id="Layer_1" xmlns="http://www.w3.org/2000/svg" xmlns:xlink="http://www.w3.org/1999/xlink" x="0px" y="0px"
	 viewBox="0 0 433.5 378.5" style="enable-background:new 0 0 433.5 378.5;" xml:space="preserve">
<style type="text/css">
	.st0{fill:#F6F5F4;}
	.st1{display:none;fill:none;stroke:#02153D;stroke-width:2;stroke-linecap:round;stroke-linejoin:round;stroke-miterlimit:10;}
</style>
<g>
	<path class="st0" d="M420,234.9c-2.6,0-5.1-1-7.1-2.9L201.6,27.3L-9.7,232c-4.1,3.9-10.5,3.8-14.5-0.2c-3.9-4.1-3.8-10.5,0.2-14.5
		L194.4,5.7c4-3.8,10.3-3.8,14.2,0l218.4,211.6c4.1,3.9,4.2,10.4,0.2,14.5C425.3,233.9,422.7,234.9,420,234.9z"/>
</g>
<g>
	<path class="st0" d="M116.2,374.8c-2.8,0-5.5-1.1-7.4-3.2L-24.3,231.7c-1.8-1.9-2.8-4.4-2.8-7.1V54c0-4.1,2.5-7.9,6.3-9.5
		c3.8-1.6,8.2-0.7,11.2,2.2l218.4,218.4c3.9,3.9,4,10.2,0.3,14.2l-85.3,92.1C121.8,373.6,119.1,374.8,116.2,374.8
		C116.3,374.8,116.3,374.8,116.2,374.8z M-6.6,220.6l122.8,129.1l71.2-76.9l-194-194V220.6z"/>
</g>
<g>
	<path class="st0" d="M286.9,374.8C286.9,374.8,286.8,374.8,286.9,374.8c-2.9,0-5.6-1.2-7.5-3.3L194,279.4c-3.7-4-3.6-10.3,0.3-14.2
		L412.7,46.8c2.9-2.9,7.3-3.8,11.2-2.2c3.8,1.6,6.3,5.3,6.3,9.5v170.6c0,2.6-1,5.2-2.8,7.1L294.3,371.7
		C292.4,373.7,289.7,374.8,286.9,374.8z M215.8,272.7l71.2,76.9l122.8-129.1V78.8L215.8,272.7z"/>
</g>
</svg>
