<?xml version="1.0" encoding="utf-8"?>
<!-- Generator: Adobe Illustrator 22.1.0, SVG Export Plug-In . SVG Version: 6.00 Build 0)  -->
<svg version="1.1" id="Layer_1" xmlns="http://www.w3.org/2000/svg" xmlns:xlink="http://www.w3.org/1999/xlink" x="0px" y="0px"
	 viewBox="0 0 137.3 52.4" style="enable-background:new 0 0 137.3 52.4;" xml:space="preserve">
<style type="text/css">
	.st0{fill:#19191A;}
	.st1{fill:#3C4686;}
</style>
<g>
	<path class="st0" d="M35.6,1.2H1.2v1.6C9.5,2.8,9,6.7,9,6.7s0,31.9,0,37.6c0,5.7-7.8,5.4-7.8,5.4v1.5h34.4c0,0,21.9,0,21.9-25
		S35.6,1.2,35.6,1.2z M38.2,46.9c-2.3,1.6-5,2.3-7.8,2.3H24c0,0-4.4,0.2-4.4-5s0-40.9,0-40.9h9.1c3.6,0,7.2,1.3,10,3.6
		c4,3.4,8.6,9.7,8.6,20.1C47.3,38.4,42.2,44.1,38.2,46.9z"/>
</g>
<path class="st1" d="M91.4,43.6L75.6,1.2h-6.7L67,5.6c0,0,5.5,13.8,9.9,24.9H61.6l-1.8,3.8h18.6c1.7,4.4,3.1,8,3.6,9.4
	c1.8,4.9-3.8,5.7-3.8,5.7h-2.6v2h24.2v-2C93.8,49.2,91.4,43.6,91.4,43.6z"/>
<path class="st0" d="M81.8,1.2h32.1c0,0,12.1,0.3,12.1,10.9s-12.2,13.6-12.2,13.6s4.4,0.1,7.4,6.1c3.1,6,8.6,14.6,9.7,15.7
	c1.1,1,5.1,1.8,5.1,1.8v2h-14.9c0,0-3.3-3.9-6.1-9.8c-2.9-5.9-4.8-15.2-15.3-15.2v-1.8h3.8c1.8,0,3.5-0.5,5-1.5
	c2.4-1.6,5.2-4.6,5.2-10.2c0-7.4-6.2-9.2-10.6-9.2c-2.5,0-21.4,0-21.4,0V1.2z"/>
</svg>
