<?xml version="1.0" encoding="utf-8"?>
<!-- Generator: Adobe Illustrator 22.1.0, SVG Export Plug-In . SVG Version: 6.00 Build 0)  -->
<svg version="1.1" id="State" xmlns="http://www.w3.org/2000/svg" xmlns:xlink="http://www.w3.org/1999/xlink" x="0px" y="0px"
	 viewBox="0 0 113.7 131.2" style="enable-background:new 0 0 113.7 131.2;" xml:space="preserve">
<style type="text/css">
	.st0{fill:#F0EEED;}
</style>
<polygon class="st0" points="5.3,14.3 5.1,13.5 5.1,13.4 5.1,13.3 5,12.9 4.9,12.1 4.9,12.1 4.8,11.5 4.8,11.5 4.7,11 4.5,10 
	4.5,9.2 4.4,9 4.3,8.1 4.2,7.2 4,6.4 4,6.2 4,6.1 4,5.8 4,5.7 4,5.6 3.9,4.8 5,4.8 5.8,4.8 6.2,4.9 6.7,4.9 6.8,4.9 6.9,4.9 
	7.2,4.9 7.8,4.9 8.1,4.9 8.1,4.9 8.4,4.9 8.5,4.9 8.6,4.9 9,4.9 9,4.9 9.1,4.9 9.5,4.9 9.5,4.9 9.6,4.9 9.6,4.9 9.9,4.9 10.3,4.9 
	10.4,4.9 10.5,4.9 10.6,4.9 10.8,4.9 10.9,4.9 10.9,4.9 11,4.9 11,4.9 11.1,4.9 11.2,4.9 11.5,4.9 11.7,4.9 11.9,4.9 12,4.9 12,4.9 
	12.2,4.9 12.2,4.9 12.3,4.9 12.3,4.9 12.4,4.9 12.5,4.9 12.6,4.9 12.8,4.9 12.9,4.9 13.1,4.9 13.2,4.9 13.8,4.9 13.9,4.9 14.2,4.9 
	14.3,4.9 14.8,4.9 14.9,4.9 15.2,4.9 15.2,4.9 15.6,4.9 15.6,4.9 16,4.9 16,4.9 16.2,4.9 17.4,4.9 17.5,4.9 17.9,4.9 18.2,4.9 
	18.3,4.9 18.5,4.9 19.4,4.9 19.4,4.9 20,4.9 20.1,4.9 20.7,4.9 20.8,4.9 20.9,4.9 20.9,4.9 21.1,4.9 21.2,4.9 21.9,4.9 22.1,4.9 
	22.7,4.9 22.8,4.9 22.9,4.9 23.9,4.9 25.1,4.9 25.2,4.9 26.4,4.9 27.6,4.9 27.7,4.9 28.8,4.9 30.1,4.9 30.2,4.9 30.2,4.9 30.4,4.9 
	30.6,4.9 30.7,4.9 30.9,4.9 31.2,4.9 31.3,4.9 31.7,4.9 33,4.9 33.7,4.9 34,4.9 34.2,4.9 34.2,4.9 34.8,4.9 35.6,4.9 35.9,5 36.6,5 
	36.7,5 38.1,5 38.2,5 38.6,5 39.2,4.9 39.5,4.9 40.1,4.9 40.4,4.9 41,4.9 41.4,4.9 41.6,4.9 41.8,4.9 42.4,4.9 42.5,4.9 43.1,4.9 
	43.2,4.9 43.6,4.9 44.1,4.9 44.7,4.9 44.7,4.9 44.8,4.9 47,4.9 47,4.8 47.4,4.8 48.5,4.8 49.9,4.7 52.1,4.7 52.5,4.7 52.7,4.6 
	52.8,4.6 53.1,4.6 53.2,4.6 53.4,4.6 54,4.6 54.1,4.6 55.3,4.5 56.1,4.5 56.2,4.5 56.3,4.5 58.1,4.5 58.1,4.6 58.1,4.7 58.2,4.8 
	58.1,5 58,5 58,5.1 57.8,5.3 57.8,5.5 57.8,5.5 57.7,5.7 57.7,5.7 57.7,5.8 57.8,6 57.8,6 57.8,6 57.8,6.1 57.8,6.1 57.7,6.1 
	57.7,6.1 57.6,6.1 57.6,6.2 57.6,6.3 57.6,6.3 57.4,6.5 57.4,6.5 57.3,6.5 57.2,6.4 57.1,6.5 57,6.5 57,6.6 57,6.6 56.9,6.6 
	56.8,6.6 56.8,6.7 56.7,6.8 56.7,6.9 56.6,6.9 56.5,6.9 56.5,7 56.5,7 56.4,7.1 56.3,7.2 56.3,7.2 56.2,7.2 56.2,7.3 56,7.3 56,7.4 
	56.1,7.5 56,7.7 55.9,7.7 55.8,7.6 55.7,7.7 55.5,7.7 55.5,7.7 55.4,7.7 55.3,7.8 55.3,7.8 55.3,7.9 55.3,7.9 55.3,8 55.2,8 55.2,8 
	55.1,8 55.1,8.1 55.1,8.2 55.1,8.2 55.1,8.3 55,8.3 55,8.4 55,8.5 55,8.5 55,8.6 54.9,8.6 54.9,8.6 54.8,8.6 54.8,8.6 54.7,8.6 
	54.6,8.6 54.6,8.8 54.7,9 54.6,9.2 54.6,9.3 54.5,9.4 54.3,9.2 54.3,9.2 54.2,9.1 54.1,9.2 54.1,9.3 54.1,9.4 54,9.4 54,9.4 
	53.9,9.4 53.9,9.5 53.9,9.5 53.9,9.6 53.9,9.7 53.9,9.7 53.6,9.8 53.5,10.1 53.6,10.5 53.5,10.7 53.6,10.9 53.4,11 53.3,11.2 
	53.1,11.3 52.9,11.5 52.8,11.7 52.8,12 52.9,12.1 52.9,12.2 53,12.3 53,12.4 52.9,12.4 52.9,12.4 52.9,12.5 52.9,12.5 53,12.5 
	53,12.6 53,12.6 53.1,12.7 53.1,12.7 53.1,12.8 53.1,12.9 53.1,12.9 53.2,13 53.2,13 53.3,13 53.3,13 53.4,13 53.5,13 53.6,13.1 
	53.6,13.1 53.6,13.3 53.7,13.3 53.8,13.2 53.9,13.2 54,13.3 54,13.5 54.1,13.6 54.2,13.7 54.3,13.7 54.4,13.8 54.4,13.9 54.5,13.9 
	54.6,14 54.8,14 55,14.1 55.1,14.2 55.2,14.4 55.3,14.4 55.3,14.5 55.2,14.6 55.3,14.7 55.5,14.7 55.5,14.8 55.5,14.8 55.6,14.8 
	55.7,14.8 55.9,14.8 56.2,14.9 56.2,14.9 56.6,14.9 56.7,14.9 56.7,14.9 56.8,14.9 56.8,14.9 56.9,15 56.8,15 56.8,15.1 56.8,15.3 
	56.9,15.3 57.2,15.4 57.2,15.6 57.5,15.9 57.5,15.9 57.7,16 57.8,16 57.9,16.1 58.1,16.4 58.2,16.5 58.3,16.6 58.3,16.7 58.3,16.8 
	58.5,16.9 58.5,16.8 58.6,16.8 58.7,16.9 58.9,17 58.9,17 58.7,17.2 58.7,17.3 59,17.5 59,17.6 59.1,17.6 59.3,17.6 59.4,17.6 
	59.4,17.6 59.5,17.8 59.5,17.9 59.6,18 59.8,18.1 59.9,18.1 60,18.1 60.5,18.4 60.5,18.4 60.7,18.4 60.7,18.4 60.7,18.3 60.7,18.3 
	60.7,18.2 60.8,18.2 61,18.1 61.4,18.1 61.5,18.1 61.6,18.2 61.7,18.2 61.9,18 62.1,18 62.2,18.1 62.3,18.1 62.6,18 62.7,18 
	63.1,18.2 63.3,18.3 63.3,18.3 63.4,18.4 63.3,18.5 63.3,18.5 63.3,18.6 63.5,18.7 63.6,18.7 63.6,18.7 63.6,18.8 63.6,18.8 
	63.6,18.9 63.6,18.9 63.7,19 63.8,19.1 63.8,19.4 63.9,19.5 63.9,19.6 64,19.7 64,19.9 64,20 64.1,20.3 64.1,20.3 64.1,20.4 
	64.1,20.5 64.1,20.5 64.1,20.6 64.2,20.7 64.2,20.9 64.2,21.1 64.2,21.1 64.3,21.2 64.5,21.4 64.7,21.5 64.8,21.6 65,21.8 
	65.1,21.8 65.1,21.9 65.2,22 65.2,22 65.2,22.1 65.2,22.2 65.2,22.2 65.2,22.3 65.3,22.6 65.4,22.8 65.4,22.9 65.6,23.1 65.6,23.2 
	65.7,23.3 65.8,23.4 65.9,23.4 66,23.5 66.1,23.6 66.2,23.8 66.2,23.8 66.2,23.9 66.2,24 66.3,24.1 66.3,24.3 66.3,24.4 66.3,24.5 
	66.3,24.7 66.3,24.8 66.3,24.9 66.4,25 66.4,25 66.3,25.1 66.3,25.2 66.4,25.3 66.5,25.6 66.5,25.7 66.5,26 66.5,26.1 66.6,26.1 
	66.7,26.3 66.7,26.4 66.8,26.4 66.8,26.4 66.9,26.8 66.9,26.9 67.2,27 67.3,27.1 67.4,27.1 67.4,27.1 67.5,27.1 67.6,27.2 
	67.8,27.3 67.8,27.4 68,27.6 68,27.7 68,27.8 68,27.8 68.1,27.9 68.1,27.9 68.1,27.9 68.2,27.9 68.2,28 68.2,28 68.3,28.1 
	68.4,28.1 68.4,28.2 68.6,28.3 68.6,28.4 68.6,28.4 68.6,28.4 68.6,28.5 68.5,28.6 68.5,28.7 68.5,28.8 68.5,28.8 68.5,28.9 
	68.6,29 68.7,29 68.8,29 68.8,29 68.9,29 68.9,29.1 69,29.2 69,29.3 69,29.3 69.1,29.4 69.2,29.5 69.3,29.7 69.4,29.8 69.6,29.9 
	69.6,30 69.6,30 69.6,30.3 69.6,30.3 69.6,30.4 69.7,30.4 69.7,30.4 69.7,30.5 69.8,30.7 69.8,30.8 69.9,30.9 70,30.9 70.1,30.9 
	70.1,31 70,31 70,31 70,31.1 69.9,31.1 69.9,31.2 70,31.3 70,31.4 70.1,31.4 70.2,31.5 70.2,31.5 70.3,31.7 70.3,31.8 70.3,31.9 
	70.5,32.2 70.5,32.2 70.8,32.3 70.9,32.3 70.9,32.2 71,32.2 71,32.2 71.1,32.2 71.2,32.2 71.2,32.2 71.4,32.4 71.6,32.5 71.7,32.7 
	71.8,32.9 71.9,33 71.9,33.1 72.2,33.3 72.2,33.3 72.4,33.5 72.7,33.7 72.7,33.7 72.8,33.8 72.9,33.9 73.1,34 73.1,34 73.3,34.2 
	73.4,34.2 73.4,34.3 73.5,34.3 73.6,34.3 73.6,34.3 73.7,34.2 73.8,34.2 73.9,34.2 74,34.3 74.1,34.4 74.2,34.4 74.3,34.5 
	74.4,34.6 74.6,34.7 74.6,34.8 74.7,34.8 74.9,34.9 74.9,34.9 75,35 75.2,35 75.3,35.2 75.3,35.2 75.4,35.2 75.5,35.3 75.6,35.3 
	75.7,35.4 75.8,35.5 75.8,35.6 75.9,35.6 75.9,35.7 76,35.8 76.1,35.8 76.2,35.8 76.2,35.9 76.2,35.9 76.2,36 76.3,36 76.2,36.3 
	76.2,36.3 76.3,36.3 76.3,36.4 76.4,36.3 76.4,36.4 76.5,36.4 76.6,36.5 76.7,36.6 76.9,36.8 76.9,36.8 77,36.8 77,36.8 77,36.8 
	77,36.9 77.1,36.9 77.2,36.9 77.2,36.9 77.4,37.1 77.4,37.3 77.5,37.6 77.6,37.6 77.6,37.7 77.6,37.8 77.7,38.1 77.7,38.3 
	77.7,38.5 77.8,38.6 77.8,38.7 77.9,38.8 78,38.8 78.1,38.9 78.1,38.9 78.2,39.1 78.3,39.3 78.3,39.3 78.5,39.4 78.5,39.5 
	78.5,39.6 78.5,39.9 78.6,40.3 78.6,40.3 78.8,40.6 78.9,40.7 79,40.7 79.1,40.8 79.1,40.8 79.3,40.8 79.3,40.8 79.4,40.9 
	79.5,40.9 79.5,40.9 79.6,41.1 79.7,41.2 79.8,41.3 80,41.3 80,41.4 80.1,41.4 80.1,41.4 80.1,41.3 80.2,41.3 80.3,41.3 80.3,41.2 
	80.4,41.2 80.5,41.2 80.6,41.2 80.8,41.5 80.8,41.5 80.8,41.6 81,41.6 81.3,41.7 81.3,41.7 81.4,41.8 81.7,42 81.7,42 81.8,42 
	81.9,42 81.9,42 82.1,42.3 82.2,42.4 82.3,42.5 82.3,42.5 82.4,42.6 82.4,42.7 82.5,42.8 82.7,42.8 82.8,42.9 82.8,43.1 82.8,43.1 
	82.8,43.1 82.9,43.1 82.9,43.2 83.1,43.4 83.2,43.6 83.2,43.7 83.2,43.8 83.2,43.8 83.3,43.9 83.3,44 83.4,44.1 83.4,44.1 
	83.6,44.2 83.8,44.2 83.8,44.3 83.9,44.3 84,44.3 84.2,44.4 84.3,44.5 84.5,44.5 84.6,44.6 84.7,44.7 84.7,44.7 84.8,44.9 
	84.8,44.9 84.9,45.1 84.9,45.2 84.9,45.2 84.9,45.3 84.9,45.3 84.9,45.3 84.9,45.4 84.9,45.4 84.8,45.5 84.7,45.5 84.7,45.6 
	84.7,45.7 84.7,45.8 84.8,45.8 84.8,45.9 84.8,45.9 84.8,46 84.8,46.1 84.6,46.1 84.5,46.2 84.4,46.2 84.4,46.3 84.5,46.3 
	84.5,46.4 84.6,46.8 84.7,46.9 84.7,47 84.7,47.1 84.6,47.2 84.5,47.1 84.4,47 84.3,47 84.3,47.1 84.3,47.1 84.3,47.2 84.3,47.3 
	84.4,47.3 84.5,47.5 84.5,47.6 84.4,47.6 84.4,47.7 84.4,47.8 84.4,47.8 84.5,47.8 84.6,47.8 84.6,47.8 84.8,47.8 84.8,47.8 
	84.9,47.8 84.9,48 84.9,48.1 85,48.2 85.1,48.2 85.1,48.3 85.1,48.3 85.2,48.3 85.2,48.2 85.3,48.2 85.3,48.1 85.3,48.1 85.3,48.2 
	85.4,48.2 85.4,48.3 85.3,48.3 85.4,48.3 85.5,48.4 85.6,48.5 85.7,48.7 85.8,48.7 86,48.6 86,48.6 86,48.5 86,48.6 86.1,48.6 
	86.3,48.6 86.4,48.7 86.5,48.7 86.5,48.8 86.5,48.8 86.4,48.9 86.4,48.9 86.3,48.9 86.3,48.9 86.2,48.9 86.2,49 86.2,49.2 
	86.2,49.3 86.2,49.3 86.2,49.3 86.4,49.3 86.6,49.5 86.7,49.6 86.7,49.6 86.7,49.7 86.7,49.8 86.6,49.8 86.5,49.8 86.5,49.8 
	86.4,50.2 86.4,50.3 86.5,50.4 86.7,50.5 86.7,50.5 86.9,50.7 87,50.8 87.2,50.8 87.3,50.9 87.4,50.9 87.4,51 87.4,51.2 87.4,51.2 
	87.5,51.2 87.8,51.3 87.9,51.3 88.1,51.2 88.1,51.2 88.1,51.1 88,51 88,51 88,50.9 88.1,50.9 88.2,50.9 88.2,51 88.3,51 88.3,51.1 
	88.3,51.2 88.4,51.4 88.4,51.4 88.4,51.5 88.5,51.5 88.5,51.5 88.6,51.6 88.5,51.8 88.4,51.8 88.3,51.8 88.2,52 88.3,52.3 
	88.4,52.4 88.4,52.6 88.6,52.8 88.7,52.9 88.9,53 89.3,53.3 89.4,53.4 89.5,53.5 89.7,53.7 89.8,53.7 89.9,53.7 89.9,53.7 
	90.2,53.7 90.7,54 90.8,54 90.8,54 90.9,54.1 90.9,54.1 91.1,54.2 91.1,54.2 91.2,54.2 91.2,54.2 91.2,54.2 91.3,54.2 91.3,54.2 
	91.4,54.2 91.5,54.2 91.7,54.2 91.7,54.2 91.8,54.2 91.8,54.2 91.9,54.2 91.9,54.3 91.9,54.4 91.9,54.5 91.9,54.5 91.9,54.5 
	92,54.5 92,54.5 92.1,54.5 92.1,54.5 92.2,54.6 92.2,54.6 92.1,54.7 92.1,54.7 92.1,54.7 92.1,54.8 92.2,54.8 92.3,54.8 92.3,54.8 
	92.4,54.8 92.5,54.9 92.6,55 92.6,55.1 92.7,55.2 92.8,55.2 92.9,55.2 92.9,55.2 92.9,55.2 93,55.2 93,55.2 93,55.2 93,55.3 
	93,55.4 93,55.4 93.1,55.5 93.1,55.5 93.2,55.5 93.2,55.5 93.2,55.5 93.3,55.4 93.4,55.4 93.4,55.5 93.5,55.6 93.5,55.6 93.9,55.9 
	94.1,55.9 94.1,55.9 94.3,56.2 94.6,56.4 94.6,56.4 94.6,56.7 94.6,56.7 94.5,57.2 94.4,57.6 94.4,57.6 94.4,57.6 94.3,57.6 
	94.3,57.6 94.2,57.7 94.2,57.7 94.2,57.7 94.2,57.8 94.2,57.9 94.2,57.9 94.3,58 94.4,58.1 94.4,58.2 94.4,58.3 94.4,58.4 
	94.4,58.4 94.5,58.4 94.8,58.7 94.9,58.9 94.9,59.1 95.2,59.2 95.2,59.2 95.2,59.3 95.2,59.4 95.1,59.5 95,59.6 94.9,59.8 95,59.8 
	95.1,59.9 95.2,59.9 95.3,59.9 95.5,59.9 95.5,60 95.5,60 95.6,60.1 95.5,60.3 95.5,60.5 95.5,60.6 95.6,60.6 95.6,60.6 95.7,60.6 
	95.7,60.6 96.1,60.8 96.2,60.9 96.3,61.1 96.3,61.4 96.3,61.5 96.3,61.5 96.2,61.6 96.2,61.8 96.2,62 96.2,62.2 96.2,62.2 
	96.1,62.2 96.1,62.3 96.1,62.3 96.2,62.4 96.2,62.4 96.3,62.4 96.3,62.5 96.3,62.5 96.3,62.6 96.2,62.6 96.2,62.6 96.2,62.7 
	96.2,62.7 96.2,62.7 96.3,62.7 96.3,62.8 96.4,62.9 96.4,62.9 96.4,63 96.4,63.1 96.4,63.1 96.4,63.2 96.4,63.2 96.4,63.2 
	96.5,63.2 96.5,63.2 96.6,63.3 96.6,63.3 96.6,63.4 96.6,63.4 96.5,63.5 96.4,63.7 96.3,64 96.3,64.2 96.2,64.5 96.2,64.5 
	96.5,64.7 96.5,64.7 96.6,64.7 96.6,64.7 96.6,64.7 96.6,64.7 96.7,64.8 96.8,65 96.8,65.1 96.7,65.4 96.7,65.5 96.7,65.6 
	96.7,65.7 96.8,65.7 96.9,65.7 97,65.7 97,65.8 97,65.8 96.8,66 96.7,66 96.7,66.2 96.8,66.2 96.8,66.2 96.7,66.3 96.6,66.3 
	96.6,66.3 96.6,66.3 96.6,66.2 96.5,66.2 96.5,66.2 96.5,66.2 96.5,66.4 96.5,66.4 96.6,66.6 96.6,66.7 96.8,66.8 96.9,67 97,67.1 
	97.1,67.2 97.3,67.4 97.4,67.4 97.4,67.4 97.5,67.3 97.5,67.3 97.6,67.4 97.6,67.4 97.6,67.6 97.6,67.7 97.8,67.8 97.9,67.8 
	98.1,67.9 98.5,68.1 98.6,68.1 98.7,68.1 98.7,68.1 99,68.1 99.1,68.1 99.1,68.1 99.2,68.1 99.2,68.1 99.3,68.1 99.4,68.1 
	99.6,68.2 99.6,68.3 99.7,68.5 99.7,68.6 99.7,68.6 99.7,68.7 99.7,68.7 99.7,68.8 99.7,68.8 99.9,68.9 100,69.1 100.2,69.2 
	100.3,69.2 100.3,69.2 100.4,69.2 100.6,69.2 100.6,69.2 100.6,69.3 100.6,69.4 100.6,69.4 100.6,69.4 100.6,69.5 100.6,69.5 
	100.7,69.7 100.8,69.8 101.1,70.2 101.5,70.5 101.6,70.6 101.6,70.6 101.7,70.6 101.7,70.6 101.7,70.6 101.7,70.6 101.6,70.8 
	101.5,70.9 101.4,70.9 101.4,71 101.4,71 101.4,71.1 101.4,71.1 101.4,71.1 101.5,71.1 101.4,71.2 101.4,71.2 101.4,71.3 
	101.3,71.3 101.3,71.4 101.4,71.7 101.5,71.9 101.6,72 101.7,72.1 101.9,72.4 102,72.5 102,72.7 101.9,72.8 102,72.8 102,72.9 
	102.1,73 102.2,73.1 102.2,73.1 102.2,73.2 102.2,73.2 102.2,73.3 102.2,73.3 102.4,73.4 102.5,73.5 102.6,73.6 102.6,73.6 
	102.6,73.7 102.6,73.7 102.6,73.7 102.7,73.7 102.7,73.6 102.7,73.6 102.8,73.6 102.8,73.6 102.9,73.6 103,73.8 103,73.8 
	103.1,73.8 103.1,74 103,74.1 103,74.1 103,74.2 103.1,74.5 103.2,74.6 103.3,74.6 103.3,74.7 103.3,74.7 103.4,75.1 103.4,75.2 
	103.4,75.2 103.3,75.3 103.2,75.5 103.1,75.6 103,75.6 103,75.7 102.8,75.9 102.8,76.1 102.6,76.3 102.6,76.4 102.6,76.5 
	102.6,76.5 102.6,76.6 102.7,76.6 102.8,76.8 102.8,76.8 102.9,76.9 102.9,77 103.1,77.2 103.2,77.3 103.4,77.5 103.4,77.6 
	103.5,77.7 103.5,77.8 103.5,77.9 103.5,78 103.5,78.1 103.5,78.1 103.5,78.2 103.4,78.2 103.4,78.3 103.3,78.4 103.2,78.4 
	103.2,78.5 103.3,78.5 103.4,78.5 103.4,78.6 103.5,78.7 103.5,78.8 103.5,79 103.5,79.1 103.5,79.2 103.5,79.3 103.5,79.4 
	103.6,79.7 103.6,79.8 103.7,79.9 104,79.9 104.1,79.9 104.1,79.9 104.1,80 104.2,80.1 104.3,80.1 104.7,80.4 104.8,80.4 
	104.9,80.5 104.9,80.5 105.1,80.5 105.1,80.5 105.3,80.5 105.4,80.6 105.5,80.5 105.7,80.4 105.8,80.3 105.9,80.2 106,80.1 
	106.1,80.1 106.1,80.1 106.1,80.1 106.2,80.1 106.3,80.2 106.4,80.3 106.5,80.5 106.6,80.6 106.7,80.7 107,80.8 107.1,80.8 
	107.3,80.9 107.5,81.2 107.7,81.4 107.9,81.6 108,81.6 108.1,81.7 108.3,81.7 108.7,81.7 108.8,81.7 109.2,81.9 109.5,82 
	109.6,81.9 109.8,82 109.9,82.3 109.9,82.4 109.8,82.5 109.8,82.7 109.7,82.9 109.7,83 109.7,83 109.6,83 109.4,83.5 109.1,83.6 
	109,83.7 108.6,84 108.3,84.1 107.9,84.1 107.9,83.8 107.6,83.8 107.6,83.8 107.5,83.8 107,84.3 106.9,84.5 106.9,84.7 107,85 
	107.4,85 107.7,85 107.8,85.1 107.6,85.4 107.5,85.5 107,86 106.6,86.5 106.4,86.5 106.2,86.4 106.1,86.2 105.6,86.1 105.5,86 
	105.1,86 105,86 105,86 104.9,86 105,86.3 105.1,86.5 105.1,86.7 105,86.9 104.7,87.1 104.7,87.3 105.1,87.5 105.3,87.5 105.3,87.4 
	105.5,87.5 105.6,87.5 105.6,87.7 105.5,87.8 105.4,88 105.2,88.4 104.9,88.9 104.7,89.1 104.3,89.3 104.3,89.3 104.3,89.3 
	104,89.6 103.6,90.1 103.5,90.2 103.4,90.2 103,90 102.9,90 102.1,89.9 102,90.1 101.9,90.3 102.3,90.7 102.9,91 103.1,90.9 
	103.1,90.8 103.1,90.8 103.4,90.7 103.6,90.9 103.5,91.2 103.5,91.4 103.6,92 103.6,92.8 103.2,93.5 103,94.2 102.7,94.6 
	102.6,94.6 102.5,94.5 102.4,94.3 102.2,94.3 102,94.3 101.8,94.5 101.2,94.7 100.9,94.6 100.7,94.8 100.7,95.1 100.7,95.2 
	100.7,95.3 100.8,95.3 101,95.3 101.7,95.4 101.8,95.3 102.1,95.1 102.3,95.1 102.6,95.3 102.6,95.5 102.6,95.6 102.4,96 
	102.1,96.8 101.6,97.5 101.2,98 101.1,98.1 100.9,98.6 100.5,99.5 100.5,99.6 100.5,100 100.4,100.7 100.6,100.7 100.7,100.7 
	101.1,100.9 100.9,101.3 100.7,101.5 100.6,101.7 100.6,102.6 100.5,102.9 100.3,103.4 100.3,103.7 100.3,103.8 100.2,103.9 
	100.2,103.9 100,103.9 99.8,103.9 99.2,104.4 98.9,104.9 98.7,105.2 98.7,105.3 98.8,105.4 98.7,105.4 98.6,105.6 98.6,105.8 
	98.6,105.8 98.5,105.8 98.2,105.9 98.1,105.9 97.9,105.9 97.9,105.9 97.8,106.1 97.8,106.5 97.9,107.1 97.9,107.4 97.6,108.7 
	97.5,108.9 97.4,109 97.2,109 97.1,109 97.1,108.9 97,108.9 96.8,109 96.6,109.1 96.6,109.3 96.4,109.5 95.9,109.8 95.8,110 
	96,110.2 96.1,110.3 96.2,110.3 96.3,110.2 96.5,110.2 96.7,110.3 96.9,110.5 97.2,110.5 97.4,110.5 97.5,110.1 97.6,110 97.8,110 
	97.8,110 97.9,110.5 97.9,110.6 97.9,110.8 97.9,111.8 97.5,113.3 97.4,113.7 97.4,113.9 97.1,114.1 97,114.4 96.9,114.8 
	96.8,114.9 96.8,115 96.7,115.5 96.7,115.9 96.7,116.1 96.8,116.2 96.8,116.3 96.9,116.7 97,116.9 97.1,117.1 97.1,117.1 
	96.8,117.1 96.7,117 96.6,117 96.6,117 96.5,117 96.4,116.9 96.2,116.7 96.2,116.7 96.1,116.7 95.9,116.7 95.7,116.8 95.5,116.8 
	95.4,116.8 95.2,116.8 95.2,116.8 95.1,116.8 95.1,116.8 95.1,116.9 95.1,116.9 95,117 95,117 94.9,117 94.9,117 94.8,117 94.8,117 
	94.8,117 94.7,116.9 94.7,116.9 94.5,117 94.4,116.9 94.3,116.9 94.3,116.9 94.2,116.8 94.2,116.8 94.1,116.8 93.9,116.8 
	93.7,116.7 93.7,116.7 93.6,116.7 93.5,116.7 93.5,116.8 93.4,116.8 93.4,116.8 93.3,116.8 93.2,116.8 93.2,116.8 93.2,116.8 
	93.1,116.6 93.1,116.6 93,116.5 92.9,116.6 92.9,116.6 92.8,116.6 92.5,116.7 92.5,116.7 92.4,116.7 92.4,116.6 92.4,116.5 
	92.4,116.3 92.4,116.3 92.3,116.3 92.3,116.3 92.2,116.2 92.1,116.2 92,116.2 92,116.3 92,116.3 92,116.4 91.9,116.4 91.9,116.4 
	91.6,116.3 91.5,116.3 91.5,116.2 91.4,116.2 91.2,116.2 91.1,116.2 91,116.3 90.9,116.3 90.8,116.3 90.7,116.2 90.6,116.2 
	90.3,115.9 90.3,115.8 90.3,115.8 90.2,115.8 90.2,115.8 90.2,115.7 90.2,115.7 90.1,115.7 90,115.7 89.9,115.6 89.8,115.5 
	89.7,115.5 89.7,115.6 89.6,115.7 89.6,115.7 89.5,115.7 89.4,115.7 89.3,115.6 89.3,115.4 89.2,115.3 89.1,115.3 88.8,115.1 
	88.8,115.1 88.6,115.2 88.5,115.2 88.4,115.2 88.3,115.2 88.1,115.2 88.1,115.3 88,115.2 88,115.2 87.9,115.1 87.8,115 87.4,115.1 
	87.4,115.1 87.2,114.9 87.1,114.8 86.9,114.6 86.9,114.5 86.8,114.4 86.8,114.3 86.7,114.3 86.7,114.3 86.6,114.4 86.6,114.4 
	86.6,114.5 86.4,114.5 86.1,114.4 85.9,114.4 85.9,114.3 85.8,114.3 85.7,114.2 85.6,114.2 85.3,114.4 85.3,114.4 85.3,114.5 
	85.3,114.6 85.3,114.7 85.3,114.9 85.3,115 85.1,115.4 85,115.5 84.9,115.6 84.9,115.6 84.8,115.6 84.7,115.5 84.7,115.4 
	84.5,115.3 84.3,115.2 84.3,115.2 84,115.2 83.9,115.3 83.9,115.3 83.9,115.4 84,115.6 84.2,115.9 84.2,116 84,116.2 83.8,116.3 
	83.7,116.3 83.6,116.3 83.6,116.3 83.6,116.3 83.5,116.5 83.5,116.6 83.5,116.7 83.5,116.8 83.5,116.9 83.6,117 83.6,117 
	83.6,117.1 83.7,117.4 83.5,117.8 83.3,118.2 83.3,118.3 83.3,118.3 83.4,118.8 83.4,118.9 83.5,118.9 83.6,119.1 83.6,119.2 
	83.6,119.3 83.7,119.4 83.8,119.5 83.8,119.7 83.9,119.9 83.9,120.1 84.1,120.2 84.2,120.2 84.2,120.2 84.3,120.4 84.3,120.7 
	84.3,120.7 84.3,120.8 84.4,121.1 84.4,121.2 84.3,121.6 84.2,122.1 84.1,122.3 84.2,122.3 84.2,122.3 84.2,122.4 84.2,122.4 
	84.3,122.5 84.3,122.6 84.3,122.6 84.2,122.9 84.2,123 84.2,123 84.2,123.1 84.2,123.2 84.2,123.4 84.2,123.5 84.2,123.5 
	84.1,123.8 84,123.8 84,124 84,124.3 83.9,124.3 83.8,124.5 83.8,124.6 83.8,124.8 83.8,124.9 83.8,125 83.7,125.2 83.7,125.3 
	83.7,125.4 83.7,125.6 83.8,125.9 83.8,126.1 83.8,126.2 83.7,126.3 83.7,126.3 83.6,126.5 83.5,126.5 83.3,126.6 83.1,126.6 
	82.8,126.6 82.5,126.6 82.4,126.5 82.3,126.5 82.3,126.5 82.3,126.5 82.3,126.4 82.3,126.4 82.3,126.4 82.1,126.4 82,126.4 
	81.8,126.4 81.8,126.5 81.7,126.5 81.4,126.5 81,126.7 80.9,126.7 80.9,126.7 80.8,126.7 80.7,126.7 80.7,126.6 80.5,126.4 
	80.4,126.3 80.3,126.2 80.2,126.2 80,125.8 79.9,125.6 79.8,124.9 79.8,124.8 79.9,124.6 79.9,124.4 79.9,124.3 79.9,124.1 
	79.8,124.1 79.8,124 79.9,123.8 80,123.6 80,123.3 79.8,123.2 79.7,123 79.6,122.8 79.4,122.8 79.4,122.7 79.3,122.5 79.3,122.4 
	79.3,122.3 79.2,122.1 79.2,122 79.2,121.8 79.3,121.5 79.3,121.5 79.3,121.3 79.4,121.3 79.6,121.3 79.7,121.2 79.6,121.2 
	78.8,121.1 78.7,121.1 78,121.1 76,120.9 75,120.9 74,120.8 72.5,120.8 72.3,120.8 72.1,120.7 71.9,120.7 71.6,120.7 71.5,120.7 
	71.2,120.7 68.8,120.6 68.6,120.5 64.5,120.3 64.4,120.3 63.1,120.2 60.4,120.1 59,120 58.9,120 58.7,120 58.6,120 58.1,119.9 
	58,119.9 57.8,119.9 57.7,119.9 57.4,119.9 55.9,119.8 55.6,119.8 54.6,119.7 54.6,119.7 53.9,119.7 53.6,119.7 53.1,119.6 
	52.8,119.6 51.9,119.6 51.6,119.5 51.5,119.5 50.3,119.5 49.5,119.4 49.5,119.4 48.8,119.4 47.7,119.3 47.1,119.3 46.3,119.3 
	46.3,119.3 44.7,119.2 43.2,119.1 43.2,119.1 43,119 42.2,119 41.6,119 38.7,118.8 38.5,118.8 38,118.8 37.9,118.8 37.8,118.8 
	37.6,118.8 37.2,118.7 37,118.7 36.9,118.7 36.4,118.7 36.2,118.7 36.2,118.7 36.1,118.7 35.3,118.6 33.2,118.5 33.1,118.5 
	32.5,118.5 30.3,118.3 30.3,118.3 30.2,118.3 29.2,118.3 28.6,118.3 28.3,118.3 28.1,118.3 26.9,118.2 26.7,118.2 26.6,118.2 
	26.3,118.1 25.1,118.1 24.6,118 24.2,118 23.8,118 23.7,118 23.5,117.9 22.3,117.9 20.9,117.8 19.9,117.8 19.2,117.7 19.2,117.7 
	19.1,117.4 18.9,117.3 18.8,117.2 18.7,117.1 18.7,116.9 18.5,116.7 18.4,116.7 18.4,116.7 18.3,116.7 18.3,116.7 18.2,116.7 
	18.1,116.7 18.1,116.6 18.1,116.6 18.1,116.5 18,116.4 18,116.3 17.9,116.3 18,116.1 18,116 18,115.9 17.8,115.6 17.8,115.6 
	17.8,115.6 17.8,115.5 17.8,115.5 17.7,115.4 17.8,115.3 17.8,115.3 17.7,115.1 17.6,114.9 17.6,114.8 17.6,114.7 17.6,114.6 
	17.6,114.5 17.7,114.4 17.7,114.3 17.7,114.3 17.8,114.3 17.8,114.2 17.8,114.1 17.7,114.1 17.7,114 17.6,113.9 17.6,113.9 
	17.6,113.9 17.6,113.8 17.6,113.7 17.6,113.7 17.6,113.6 17.5,113.5 17.5,113.4 17.5,113.4 17.6,113.3 17.6,113.3 17.6,113.2 
	17.6,113.1 17.5,113.1 17.5,113.1 17.4,113 17.3,112.8 17.2,112.7 17.1,112.5 16.9,112.3 16.9,112.2 16.8,112 16.7,111.9 
	16.6,111.9 16.5,111.8 16.5,111.8 16.5,111.6 16.5,111.5 16.5,111.5 16.6,111.4 16.6,111.3 16.6,111.3 16.6,111.2 16.6,111.1 
	16.5,111 16.5,110.9 16.4,110.9 16.2,110.9 16.2,110.9 16.1,110.8 16,110.8 16,110.7 16,110.7 16,110.6 16.1,110.4 16.1,110.4 
	16.1,110.2 16.1,110.1 16.1,110.1 16.1,109.9 16.2,109.9 16.2,109.7 16.1,109.6 16,109.4 15.9,109.2 16,108.9 16,108.9 15.9,108.7 
	15.9,108.6 15.8,108.5 15.5,108.1 15.5,108.1 15.5,108 15.6,107.9 15.5,107.5 15.4,107.4 15.4,107.2 15.4,107.2 15.3,107.1 
	15.1,107 15,106.9 15,106.9 15,106.9 14.9,106.9 14.9,106.9 14.9,106.8 14.8,106.5 14.8,106.4 14.7,106.3 14.6,106.2 14.5,106.1 
	14.5,106 14.4,105.9 14.4,105.9 14.3,105.9 14.1,105.9 13.9,105.7 13.9,105.7 13.9,105.7 13.9,105.4 13.9,105.3 13.9,105.2 
	13.9,105.2 13.8,105.2 13.8,105.2 13.8,105.1 13.8,105.1 13.8,104.9 13.8,104.7 13.8,104.7 13.9,104.5 13.9,104.5 13.9,104.3 
	14,104.1 13.9,103.9 13.9,103.9 13.9,103.9 13.9,103.8 13.9,103.7 13.8,103.5 13.7,103.4 13.7,103.3 13.7,103.2 13.6,103.1 
	13.7,103 13.7,102.9 13.7,102.8 13.6,102.8 13.7,102.7 13.7,102.6 13.8,102.6 13.8,102.6 13.9,102.6 14,102.6 14,102.5 14.1,102.4 
	14.1,102.4 14.2,102.3 14.2,102.1 14.2,102 14.2,101.9 14.3,101.9 14.3,101.7 14.3,101.7 14.3,101.4 14.2,101.3 14.2,101.2 
	14.2,101.2 14.3,101.1 14.3,100.9 14.3,100.8 14.3,100.7 14.2,100.7 14.1,100.6 14.1,100.5 14.1,100.5 14.1,100.4 14.2,100.3 
	14.3,100.2 14.3,100.2 14.4,99.9 14.4,99.7 14.4,99.6 14.5,99.5 14.5,99.4 14.4,99.3 14.4,99.3 14.4,99.2 14.5,99.1 14.5,98.9 
	14.5,98.9 14.6,98.8 14.7,98.8 14.7,98.8 14.7,98.8 14.8,98.7 14.8,98.6 14.8,98.5 14.8,98.4 14.8,98.3 14.7,98.1 14.6,97.7 
	14.8,97.3 14.9,97.2 14.9,97 15.1,96.7 15.2,96.5 15.2,96.5 15.2,96.5 15.3,96.4 15.3,96.4 15.2,96.3 15.2,96.2 15.2,96.1 15.3,96 
	15.3,96 15.3,95.9 15.4,95.8 15.4,95.8 15.3,95.7 15.3,95.7 15.2,95.6 15.1,95.4 15.1,95.4 15.1,95.2 15,95 14.9,95 15,95 15,94.9 
	15,94.8 15,94.8 14.9,94.7 14.9,94.6 14.9,94.4 15,94.3 15,94.2 15,94.1 15,94.1 14.9,94 14.9,94 14.9,94 14.9,93.9 15,93.8 
	15,93.8 15,93.7 14.9,93.7 14.8,93.6 14.8,93.6 14.6,93.5 14.5,93.3 14.4,93.2 14.4,93.2 14.4,93.1 14.4,93.1 14.4,93 14.4,93 
	14.4,92.9 14.4,92.9 14.4,92.8 14.4,92.8 14.4,92.7 14.3,92.7 14.2,92.7 14.2,92.6 13.8,92.2 13.8,92 13.7,92 13.5,91.8 13.5,91.7 
	13.4,91.7 13.4,91.6 13.4,91.5 13.4,91.4 13.4,91.1 13.4,91.1 13.5,91.1 13.5,91 13.6,90.8 13.6,90.7 13.5,90.4 13.4,90.2 
	13.4,90.1 13.4,90 13.4,90 13.5,89.9 13.5,89.8 13.5,89.8 13.4,89.8 13.4,89.7 13.3,89.6 13.2,89.5 13.1,89.5 13.1,89.5 13.1,89.4 
	13.2,89.3 13.3,89.2 13.4,89.1 13.4,89 13.3,89 13.3,89 13.3,88.7 13.4,88.7 13.4,88.6 13.4,88.5 13.4,88.5 13.4,88.5 13.3,88.3 
	13.3,88.1 13.2,88.1 13.2,88 13.2,88 13.1,87.9 13.1,87.9 13.2,87.9 13.2,87.8 13.2,87.7 13.2,87.6 13.2,87.5 13.2,87.5 13.2,87.4 
	13.2,87.4 13.3,87.3 13.3,87.1 13.4,87 13.4,86.9 13.4,86.9 13.4,86.8 13.4,86.8 13.4,86.7 13.4,86.7 13.3,86.6 13.3,86.5 
	13.4,86.5 13.6,86.5 13.7,86.5 13.7,86.5 13.8,86.5 13.8,86.5 13.9,86.4 13.9,86.3 13.9,86.2 13.9,86.1 13.8,86 13.8,86 13.9,86 
	14,85.9 14.1,85.8 14.1,85.7 14.1,85.6 14.3,85.5 14.4,85.4 14.4,85.4 14.6,85.3 14.6,85.2 14.5,85.1 14.4,84.8 14.4,84.8 
	14.4,84.7 14.5,84.7 14.7,84.6 14.8,84.6 14.8,84.5 14.9,84.5 14.9,84.4 14.9,84.4 14.8,84.3 14.8,84.2 14.8,84 14.8,83.9 
	14.8,83.9 14.9,83.8 14.9,83.6 14.9,83.6 15.1,83.4 15.2,83.3 15.1,83.2 15.2,83.1 15.2,83.1 15.2,83 15.2,83 15.1,83 15.1,83 
	15.1,83 15.1,82.9 15.1,82.8 15.1,82.7 15.1,82.7 15.1,82.6 15.1,82.5 15,82.5 15.1,82.3 15.1,82.2 15.1,82.1 15.1,82.1 15.2,81.9 
	15.2,81.8 15.1,81.8 15.1,81.7 15.2,81.6 15.2,81.5 15.3,81.5 15.3,81.4 15.3,81.3 15.3,81.2 15.2,80.9 15.1,80.7 15,80.4 15,80.3 
	15,80.2 15,80.1 15.1,80.1 15.3,80 15.3,80 15.4,79.9 15.6,79.6 15.6,79.6 15.7,79.4 15.8,79.3 16.1,79.1 16.1,79 16.2,78.9 
	16.5,78.8 17,78.6 17.1,78.6 17.2,78.5 17.2,78.5 17.2,78.4 17.2,78.4 17.1,78.3 17.1,78.3 17.2,78.2 17.2,78.2 17.2,78.2 
	17.2,78.1 17.3,78.1 17.3,78.1 17.3,78 17.4,78 17.4,78 17.5,78 17.7,78 17.8,78 18,77.9 18,77.9 18.1,77.9 18.1,77.8 18.1,77.7 
	18.1,77.6 18.1,77.6 18.2,77.6 18.3,77.5 18.4,77.3 18.4,77.2 18.4,77.2 18.4,77.2 18.5,77.1 18.5,77.1 18.5,77.1 18.6,77.1 
	18.6,77.1 18.6,77 18.7,77 18.8,76.9 18.9,76.9 18.9,76.8 18.9,76.8 18.8,76.7 18.8,76.7 18.6,76.5 18.4,76.4 18.2,76.2 17.9,75.8 
	17.8,75.8 17.6,75.7 17.4,75.6 17.4,75.6 16.7,75.3 16.4,75.2 16.4,75.2 16.3,75.1 16.3,75 16.3,74.8 16.3,74.6 16.5,74.5 
	16.6,74.3 16.7,74.3 16.7,74.2 16.8,74.2 16.8,74.2 16.8,74.1 16.8,74.1 16.8,74 16.8,73.9 16.9,73.9 16.9,73.8 16.9,73.8 
	16.9,73.7 16.9,73.6 16.9,73.6 16.9,73.5 16.9,73.4 16.9,73.4 16.9,73.3 16.9,73.2 16.9,73.1 16.9,73.1 16.9,73 16.9,72.8 
	17.1,72.7 17.3,72.6 17.3,72.5 17.2,72.2 17.1,72 16.8,72 16.6,71.8 16.6,71.7 16.5,71.5 16.5,71.5 16.5,71.4 16.5,71.3 16.5,71.2 
	16.6,71.1 16.6,71.1 16.6,71 16.6,71 16.6,70.9 16.5,70.8 16.5,70.7 16.5,70.6 16.5,70.6 16.5,70.5 16.5,70.4 16.4,70.3 16.4,70.2 
	16.4,70.2 16.4,70.1 16.4,70.1 16.4,70.1 16.3,69.9 16.3,69.9 16.2,69.8 16.1,69.7 16.1,69.7 16,69.6 16,69.5 16,69.5 16,69.4 
	16,69.4 15.7,69.1 15.7,69.1 15.2,68.6 15,68.4 14.8,68.1 14.8,68 14.7,67.8 14.7,67.8 14.7,67.6 14.7,67.6 14.7,67.4 14.6,67.4 
	14.6,67.4 14.6,67.3 14.5,67.3 14.5,67.2 14.5,67.2 14.5,67.1 14.5,67.1 14.5,67.1 14.6,67 14.6,67 14.5,67 14.5,66.9 14.4,66.9 
	14.4,66.8 14.3,66.7 14.3,66.7 14.3,66.6 14.4,66.6 14.4,66.5 14.5,66.4 14.5,66.3 14.4,66 14.2,65.8 14.2,65.7 14,65.7 14,65.7 
	13.9,65.6 13.9,65.6 13.9,65.4 13.8,64.8 13.8,64.8 13.8,64.7 13.8,64.7 13.8,64.6 13.9,64.5 13.9,64.4 13.9,64.4 13.9,64.3 
	13.9,64.2 13.8,64.2 13.8,64.2 13.8,64.1 13.7,64.1 13.7,64.1 13.6,64 13.5,63.9 13.4,63.8 13.4,63.6 13.4,63.5 13.5,63.4 
	13.5,63.3 13.5,63.3 13.6,63.2 13.6,63.2 13.6,63.1 13.5,63.1 13.4,63 13.4,62.9 13.3,62.8 13.2,62.7 13.1,62.7 13.1,62.7 
	12.9,62.5 12.9,62.4 12.8,62.2 12.8,62.2 12.8,62.1 12.8,61.9 12.8,61.8 12.8,61.8 12.9,61.7 12.9,61.7 12.9,61.6 13,61.5 13,61.5 
	13,61.4 12.9,61.4 12.9,61.3 12.9,61.3 12.9,61.2 12.9,61.2 12.9,61.2 12.8,61.2 12.8,61.2 12.7,61.2 12.6,61.2 12.6,61.2 
	12.6,61.1 12.5,61.1 12.5,61.1 12.5,61.1 12.4,61 12.4,60.9 12.4,60.9 12.4,60.7 12.4,60.7 12.4,60.7 12.4,60.7 12.4,60.6 
	12.4,60.6 12.4,60.5 12.4,60.4 12.4,60.4 12.4,60.2 12.4,60.2 12.3,59.9 12.3,59.6 12.2,59.2 12,58.4 12,58.2 11.9,57.3 11.9,57.2 
	11.6,55.8 11.6,55.6 11.5,54.4 11.4,53.8 11.3,53.7 11.3,53.5 11.2,53 11,51.7 11,51.2 10.9,50.9 10.8,50.3 10.6,48.8 10.4,47.7 
	10.4,47.3 10.2,46 10.1,45.8 10.1,45.6 10,44.5 9.7,43.3 9.7,43.1 9.7,43.1 9.6,42.1 9.5,41.9 9.4,41 9.4,40.8 9.2,40 9.2,39.6 
	9.1,39.3 9.1,39.2 9,38.1 8.9,37.7 8.9,37.5 8.9,37.4 8.8,37 8.8,36.8 8.7,36.4 8.7,36.3 8.5,35.4 8.5,35.2 8.5,34.8 8.5,34.8 
	8.5,34.6 8.4,34.1 8.3,33.6 8.3,33.4 8,31.8 8,31.7 7.9,30.9 7.9,30.8 7.9,30.8 7.7,30 7.6,28.9 7.5,28.7 7.4,27.9 7.4,27.8 
	7.4,27.5 7.3,27.1 7.3,26.9 7.1,26 7.1,25.8 7.1,25.5 6.9,24.2 6.9,24.1 6.8,23.8 6.8,23.7 6.7,23.3 6.7,23.1 6.6,22.5 6.5,22.2 
	6.5,21.7 6.5,21.7 6.3,20.8 6.3,20.4 6,19.2 5.9,18.3 5.9,18.3 5.9,18 5.8,17.8 5.8,17.6 5.7,17.1 5.7,17 5.6,16.8 5.6,16.5 
	5.4,15.3 "/>
</svg>
