<?xml version="1.0" encoding="utf-8"?>
<!-- Generator: Adobe Illustrator 22.1.0, SVG Export Plug-In . SVG Version: 6.00 Build 0)  -->
<svg version="1.1" id="Layer_1" xmlns="http://www.w3.org/2000/svg" xmlns:xlink="http://www.w3.org/1999/xlink" x="0px" y="0px"
	 viewBox="0 0 129.2 60.6" style="enable-background:new 0 0 129.2 60.6;" xml:space="preserve">
<style type="text/css">
	.st0{fill:#E7CAB3;}
</style>
<path class="st0" d="M76.3,10.6c0-0.1-0.1-0.1-0.2-0.2l-7.5-1.6l-3.8-6.8c-0.1-0.2-0.3-0.2-0.4,0l-3.8,6.8L53,10.5
	c-0.1,0-0.2,0.1-0.2,0.2c0,0.1,0,0.2,0.1,0.2l5.4,5.8l-1.3,7.9c0,0.1,0,0.2,0.1,0.2c0.1,0.1,0.2,0.1,0.2,0l7.2-3.5l7.2,3.5
	c0,0,0.1,0,0.1,0c0.1,0,0.1,0,0.1,0c0.1-0.1,0.1-0.1,0.1-0.2l-1.3-7.9l5.4-5.8C76.3,10.8,76.3,10.7,76.3,10.6z"/>
<path class="st0" d="M107.2,25.2c0-0.1,0-0.2-0.1-0.2l-5.9-4.9l-0.2-7.8c0-0.2-0.2-0.3-0.4-0.2L94,16.4l-7.4-2.1
	c-0.1,0-0.2,0-0.2,0.1c-0.1,0.1-0.1,0.2-0.1,0.2l2.1,7.6l-4.8,6.4c-0.1,0.1-0.1,0.2,0,0.2c0,0.1,0.1,0.1,0.2,0.1l8,0.2l4.7,6.5
	c0,0,0.1,0.1,0.1,0.1c0,0,0.1,0,0.1,0c0.1,0,0.2-0.1,0.2-0.2l2.6-7.6l7.5-2.6C107.1,25.4,107.2,25.3,107.2,25.2z"/>
<path class="st0" d="M127,53c0-0.1,0.1-0.2,0-0.2l-3.5-6.8l2.9-7.3c0.1-0.2-0.1-0.4-0.3-0.3l-7.7,1.3l-6-4.8c-0.1-0.1-0.2-0.1-0.2,0
	c-0.1,0-0.1,0.1-0.1,0.2l-1,7.9l-7,4c-0.1,0-0.1,0.1-0.1,0.2c0,0.1,0.1,0.2,0.1,0.2l7.3,3.3l1.8,7.8c0,0,0,0.1,0,0.1
	c0,0,0.1,0.1,0.1,0.1c0.1,0,0.2,0,0.2-0.1l5.4-6l7.9,0.6C126.9,53.1,127,53.1,127,53z"/>
<path class="st0" d="M22,25.2c0-0.1,0-0.2,0.1-0.2l5.9-4.9l0.2-7.8c0-0.2,0.2-0.3,0.4-0.2l6.6,4.2l7.4-2.1c0.1,0,0.2,0,0.2,0.1
	c0.1,0.1,0.1,0.2,0.1,0.2l-2.1,7.6l4.8,6.4c0.1,0.1,0.1,0.2,0,0.2c0,0.1-0.1,0.1-0.2,0.1l-8,0.2l-4.7,6.5c0,0-0.1,0.1-0.1,0.1
	c0,0-0.1,0-0.1,0c-0.1,0-0.2-0.1-0.2-0.2L29.6,28l-7.5-2.6C22.1,25.4,22,25.3,22,25.2z"/>
<path class="st0" d="M2.1,53c0-0.1-0.1-0.2,0-0.2l3.5-6.8l-2.9-7.3c-0.1-0.2,0.1-0.4,0.3-0.3l7.7,1.3l6-4.8c0.1-0.1,0.2-0.1,0.2,0
	c0.1,0,0.1,0.1,0.1,0.2l1,7.9l7,4c0.1,0,0.1,0.1,0.1,0.2c0,0.1-0.1,0.2-0.1,0.2l-7.3,3.3L16,58.4c0,0,0,0.1,0,0.1
	c0,0-0.1,0.1-0.1,0.1c-0.1,0-0.2,0-0.2-0.1l-5.4-6l-7.9,0.6C2.3,53.1,2.2,53.1,2.1,53z"/>
</svg>
