<?xml version="1.0" encoding="utf-8"?>
<!-- Generator: Adobe Illustrator 22.1.0, SVG Export Plug-In . SVG Version: 6.00 Build 0)  -->
<svg version="1.1" id="Õ_xBA__x2264__x201E__x5F_1"
	 xmlns="http://www.w3.org/2000/svg" xmlns:xlink="http://www.w3.org/1999/xlink" x="0px" y="0px" viewBox="0 0 26.6 26.6"
	 style="enable-background:new 0 0 26.6 26.6;" xml:space="preserve">
<style type="text/css">
	.st0{fill:#FFFFFF;}
</style>
<g>
	<path class="st0" d="M18.6,17.9c-0.5-0.5-1.4-0.6-1.8-0.1L14.5,20c-0.2,0.2-0.3,0.4-0.3,0.7c-1.5-1-3.1-2.3-4.6-3.8l0,0l0,0
		c-1.5-1.5-2.8-3.1-3.8-4.6c0.2,0,0.5-0.1,0.7-0.3l2.2-2.2C9.2,9.4,9.2,8.5,8.7,8L6.3,4.9C5.8,4.4,5.2,3.8,3.9,4.3
		C2.7,4.7,0.8,6.5,0.8,9.1c0,2.7,2.2,6.6,6,10.5l0,0c0,0,0,0,0,0c0,0,0,0,0,0l0,0c3.9,3.8,7.9,6.1,10.6,6.1c2.5,0,4.4-1.9,4.8-3.1
		c0.5-1.3-0.1-1.9-0.6-2.4L18.6,17.9z"/>
	<path class="st0" d="M18.7,13.2c0,0.7,0.5,1.2,1.2,1.2c0.7,0,1.2-0.5,1.2-1.2c0-4.3-3.5-7.8-7.8-7.8c-0.7,0-1.2,0.5-1.2,1.2
		c0,0.7,0.5,1.2,1.2,1.2C16.3,7.9,18.7,10.3,18.7,13.2z"/>
	<path class="st0" d="M13.4,0.8c-0.7,0-1.2,0.5-1.2,1.2c0,0.7,0.5,1.2,1.2,1.2c5.5,0,10,4.5,10,10c0,0.7,0.5,1.2,1.2,1.2
		c0.7,0,1.2-0.5,1.2-1.2C25.8,6.3,20.2,0.8,13.4,0.8z"/>
</g>
</svg>
