<?xml version="1.0" encoding="utf-8"?>
<!-- Generator: Adobe Illustrator 22.1.0, SVG Export Plug-In . SVG Version: 6.00 Build 0)  -->
<svg version="1.1" id="Layer_1" xmlns="http://www.w3.org/2000/svg" xmlns:xlink="http://www.w3.org/1999/xlink" x="0px" y="0px"
	 viewBox="0 0 385.8 435.5" style="enable-background:new 0 0 385.8 435.5;" xml:space="preserve">
<style type="text/css">
	.st0{fill:#F7F5F4;}
</style>
<g>
	<path class="st0" d="M11.5,331.9c-2.8,0-5.5-1.4-7.1-4c-2.3-3.9-0.9-8.9,2.9-11.1l181.9-106c2.5-1.5,5.7-1.5,8.2,0l180.8,106
		c3.9,2.3,5.2,7.3,2.9,11.2c-2.3,3.9-7.3,5.2-11.2,2.9L193.4,227.2L15.6,330.8C14.3,331.5,12.9,331.9,11.5,331.9z"/>
</g>
<g>
	<path class="st0" d="M193.4,225.9c-4.5,0-8.2-3.7-8.2-8.2V11.9c0-4.5,3.6-8.2,8.2-8.2s8.2,3.7,8.2,8.2v205.8
		C201.6,222.3,197.9,225.9,193.4,225.9z"/>
</g>
<g>
	<path class="st0" d="M193.4,431.8c-1.4,0-2.7-0.3-3.9-1L7.6,330.9c-1.9-1.1-3.3-2.9-3.9-5c-0.6-2.1-0.3-4.4,0.8-6.3L186.4,7.8
		c1.5-2.5,4.1-4,7-4h0c2.9,0,5.6,1.6,7,4.1l180.8,311.8c1.1,1.9,1.4,4.2,0.8,6.3c-0.6,2.1-2,3.9-3.9,5l-180.8,99.9
		C196.2,431.4,194.8,431.8,193.4,431.8z M22.7,320.6l170.7,93.7L363,320.6L193.4,28.1L22.7,320.6z"/>
</g>
</svg>
