<svg version="1.1" id="ilawyer" xmlns="http://www.w3.org/2000/svg" xmlns:xlink="http://www.w3.org/1999/xlink" x="0px" y="0px"
	 viewBox="0 0 244.3 22.1" style="enable-background:new 0 0 244.3 22.1;" xml:space="preserve">
<style type="text/css">
	.ilawyer-st0{fill:#FFFFFF;}
</style>
<g>
	<path class="ilawyer-st0" d="M53.5,2.5h0.9v0.9c0,0.7-0.4,1-1.1,1h-0.9V3.5C52.4,2.8,52.8,2.5,53.5,2.5z M52.4,7.1c0-0.7,0.4-1,1.1-1h0.9
		v9.8h-0.9c-0.7,0-1.1-0.4-1.1-1V7.1z"/>
	<path class="ilawyer-st0" d="M59.4,13.9c0.2,0.2,0.5,0.3,0.9,0.3v0.9c0,0.5-0.2,0.7-0.6,0.8c-0.3,0.1-0.7,0.1-1-0.2
		c-0.5-0.2-0.9-0.6-1.2-1.1c-0.4-0.5-0.5-1.2-0.5-2V3.5c0-0.7,0.4-1,1.1-1h0.9v10.2C58.9,13.2,59.1,13.5,59.4,13.9z"/>
	<path class="ilawyer-st0" d="M69.4,6.8c1,0.8,1.5,1.8,1.5,2.9v6h-0.6c-0.5,0-0.9-0.3-1.1-0.8c-0.8,0.8-1.9,1.1-3,1.1
		c-1.2,0-2.3-0.4-3.2-1.2c-1-0.8-1.5-1.8-1.5-2.9V9.7c0-1.2,0.5-2.2,1.5-2.9c0.9-0.8,2-1.2,3.2-1.2C67.4,5.7,68.5,6.1,69.4,6.8z
		 M66.2,7.7c-0.8,0-1.5,0.2-2,0.7c-0.5,0.4-0.8,0.8-0.8,1.5v2.3c0,0.5,0.2,1,0.8,1.5c0.5,0.5,1.2,0.7,2,0.7s1.5-0.2,2-0.7
		c0.5-0.4,0.8-0.8,0.8-1.5V9.8c0-0.5-0.2-1-0.8-1.5C67.6,7.9,66.9,7.7,66.2,7.7z"/>
	<path class="ilawyer-st0" d="M84.9,7.1c0-0.7,0.4-1,1.1-1h0.9v6c0,1.2-0.4,2.2-1.1,2.9c-0.7,0.8-1.7,1.1-2.9,1.1c-1.2,0-2.2-0.5-2.9-1.2
		c-0.8,0.8-1.8,1.2-2.9,1.2c-1.2,0-2.2-0.4-2.9-1.1c-0.7-0.7-1.1-1.7-1.1-2.9v-5c0-0.7,0.4-1,1.1-1h0.9v6c0,0.8,0.2,1.3,0.5,1.6
		c0.3,0.3,0.9,0.5,1.5,0.5s1.1-0.2,1.5-0.5c0.4-0.4,0.5-0.9,0.5-1.6v-5c0-0.7,0.4-1,1.1-1h0.9v6c0,0.7,0.2,1.2,0.5,1.6
		c0.4,0.4,0.9,0.5,1.5,0.5c0.7,0,1.2-0.2,1.5-0.5c0.3-0.4,0.5-0.8,0.5-1.6L84.9,7.1L84.9,7.1z"/>
	<path class="ilawyer-st0" d="M97.8,6L94,16.8c-0.1,0.2-0.2,0.5-0.3,0.8c-0.1,0.2-0.2,0.5-0.3,0.6c-0.3,0.4-0.6,0.8-1.1,1
		c-0.4,0.2-0.7,0.2-1,0.2c-0.4-0.1-0.6-0.4-0.6-0.9v-0.9c0.2,0,0.5-0.1,0.7-0.2c0.2-0.2,0.5-0.3,0.5-0.5l0.4-1
		c-0.6-0.2-1-0.5-1.2-0.9l-2.9-8.1c-0.1-0.2-0.1-0.5,0-0.6C88.3,6.1,88.5,6,88.7,6H90l2.9,8.1l0,0l2.6-7.4c0.2-0.5,0.5-0.8,1-0.8
		L97.8,6L97.8,6z"/>
	<path class="ilawyer-st0" d="M105.8,6.2c0.5,0.3,0.9,0.6,1.2,1c0.4,0.5,0.5,1.1,0.5,1.7c0,0.5-0.1,1-0.3,1.5c-0.2,0.4-0.5,0.7-0.9,0.9
		c-0.4,0.2-0.8,0.5-1.2,0.5c-0.4,0.2-0.9,0.2-1.3,0.2h-2.4c-0.2,0-0.3,0-0.4,0c-0.2-0.1-0.2-0.1-0.3-0.2v0.8c0,0.5,0.2,0.8,0.7,1.1
		c0.4,0.2,0.9,0.4,1.3,0.4c0.5,0.1,0.9,0,1.4-0.1c0.4-0.1,0.7-0.2,0.9-0.4c0.1-0.1,0.2-0.2,0.2-0.2c0.3-0.4,0.7-0.4,1.2-0.2l0.9,0.5
		c-0.2,0.4-0.5,0.8-0.8,1.1c-0.5,0.5-1,0.8-1.7,1c-0.6,0.2-1.2,0.3-1.9,0.3c-0.6,0-1.1-0.1-1.5-0.2c-0.5-0.2-1-0.3-1.4-0.6
		c-0.5-0.3-0.9-0.8-1.1-1.3c-0.2-0.5-0.4-1.1-0.4-1.7V9.2c0-0.5,0.2-1,0.3-1.5c0.3-0.7,0.9-1.2,1.6-1.6c0.7-0.3,1.5-0.5,2.3-0.5
		C104,5.7,105,5.8,105.8,6.2z M105,9.8c0.3-0.2,0.5-0.5,0.5-0.8c0-0.4-0.1-0.7-0.4-0.9c-0.4-0.3-0.9-0.5-1.5-0.5
		c-0.5,0-1.1,0-1.5,0.2c-0.4,0.1-0.8,0.2-1,0.5c-0.3,0.2-0.5,0.5-0.5,0.9v0.9h3.2C104.5,10.1,104.8,10,105,9.8z"/>
	<path class="ilawyer-st0" d="M109.4,9.5c0-1.2,0.4-2.1,1.2-2.7c0.6-0.5,1.4-0.8,2.2-0.8h1.3v0.8c0,0.7-0.3,1.1-1,1.1h-0.3
		c-0.4,0-0.7,0.2-0.9,0.3c-0.3,0.3-0.5,0.7-0.5,1.2v6.4h-0.9c-0.7,0-1.1-0.4-1.1-1L109.4,9.5L109.4,9.5z"/>
	<path class="ilawyer-st0" d="M126.7,8.1c-0.3-0.3-0.9-0.5-1.5-0.5s-1.1,0.2-1.5,0.5c-0.4,0.4-0.5,0.9-0.5,1.6v6h-0.9c-0.7,0-1.1-0.4-1.1-1
		v-5c0-0.7-0.2-1.2-0.5-1.6c-0.4-0.4-0.9-0.5-1.5-0.5c-0.7,0-1.2,0.2-1.5,0.5c-0.3,0.4-0.5,0.9-0.5,1.6v6h-0.9c-0.7,0-1.1-0.4-1.1-1
		v-5c0-1.2,0.4-2.2,1.1-2.9c0.7-0.8,1.7-1.2,2.9-1.2c1,0,1.9,0.3,2.5,0.9c0.1,0.1,0.2,0.2,0.4,0.4c0.2-0.2,0.2-0.3,0.4-0.4
		c0.7-0.6,1.5-0.9,2.6-0.9c1.2,0,2.2,0.4,2.9,1.2c0.7,0.8,1.1,1.7,1.1,2.9v6h-0.9c-0.7,0-1.1-0.4-1.1-1v-5
		C127.2,9.1,127.1,8.5,126.7,8.1z"/>
	<path class="ilawyer-st0" d="M139,6.8c1,0.8,1.5,1.8,1.5,2.9v6h-0.6c-0.5,0-0.9-0.3-1.1-0.8c-0.8,0.8-1.9,1.1-3,1.1c-1.2,0-2.3-0.4-3.2-1.2
		c-1-0.8-1.5-1.8-1.5-2.9V9.7c0-1.2,0.5-2.2,1.5-2.9c0.9-0.8,2-1.2,3.2-1.2C137,5.7,138.1,6.1,139,6.8z M135.8,7.7
		c-0.8,0-1.5,0.2-2,0.7c-0.5,0.4-0.8,0.8-0.8,1.5v2.3c0,0.5,0.2,1,0.8,1.5c0.5,0.5,1.2,0.7,2,0.7c0.8,0,1.5-0.2,2-0.7
		c0.5-0.4,0.8-0.8,0.8-1.5V9.8c0-0.5-0.2-1-0.8-1.5C137.3,7.9,136.6,7.7,135.8,7.7z"/>
	<path class="ilawyer-st0" d="M142.7,9.5c0-1.2,0.4-2.1,1.2-2.7c0.6-0.5,1.4-0.8,2.2-0.8h1.3v0.8c0,0.7-0.3,1.1-1,1.1h-0.3
		c-0.4,0-0.7,0.2-0.9,0.3c-0.3,0.3-0.5,0.7-0.5,1.2v6.4h-0.9c-0.7,0-1.1-0.4-1.1-1L142.7,9.5L142.7,9.5z"/>
	<path class="ilawyer-st0" d="M148.9,3.5c0-0.7,0.4-1,1.1-1h0.9v7.7h0.7c0.4,0,0.8,0,1-0.4l1.9-3c0.3-0.5,0.7-0.7,1.2-0.7h1.5l-2.3,3.9
		c-0.2,0.2-0.2,0.4-0.4,0.5c0.6,0.3,1.2,0.8,1.5,1.6l1.7,3.9h-1.2c-0.6,0-1-0.2-1.2-0.6l-1.1-2.5c-0.2-0.5-0.6-0.8-1.1-0.8h-2.1v3.8
		h-0.9c-0.7,0-1.1-0.4-1.1-1L148.9,3.5L148.9,3.5z"/>
	<path class="ilawyer-st0" d="M165.6,6.2c0.5,0.3,0.9,0.6,1.2,1c0.4,0.5,0.5,1.1,0.5,1.7c0,0.5-0.1,1-0.3,1.5c-0.2,0.4-0.5,0.7-0.9,0.9
		c-0.4,0.2-0.8,0.5-1.2,0.5c-0.4,0.2-0.9,0.2-1.3,0.2h-2.4c-0.2,0-0.3,0-0.4,0c-0.2-0.1-0.2-0.1-0.3-0.2v0.8c0,0.5,0.2,0.8,0.7,1.1
		c0.4,0.2,0.9,0.4,1.3,0.4c0.5,0.1,0.9,0,1.4-0.1c0.4-0.1,0.7-0.2,0.9-0.4c0.1-0.1,0.2-0.2,0.2-0.2c0.3-0.4,0.7-0.4,1.2-0.2l0.9,0.5
		c-0.2,0.4-0.5,0.8-0.8,1.1c-0.5,0.5-1,0.8-1.7,1c-0.6,0.2-1.2,0.3-1.9,0.3c-0.6,0-1.1-0.1-1.5-0.2c-0.5-0.2-1-0.3-1.4-0.6
		c-0.5-0.3-0.9-0.8-1.1-1.3c-0.2-0.5-0.4-1.1-0.4-1.7V9.2c0-0.5,0.2-1,0.3-1.5c0.3-0.7,0.9-1.2,1.6-1.6c0.7-0.3,1.5-0.5,2.3-0.5
		C163.8,5.7,164.8,5.8,165.6,6.2z M164.8,9.8c0.3-0.2,0.5-0.5,0.5-0.8c0-0.4-0.1-0.7-0.4-0.9c-0.4-0.3-0.9-0.5-1.5-0.5
		c-0.5,0-1.1,0-1.5,0.2c-0.4,0.1-0.8,0.2-1,0.5c-0.3,0.2-0.5,0.5-0.5,0.9v0.9h3.2C164.3,10.1,164.6,10,164.8,9.8z"/>
	<path class="ilawyer-st0" d="M173.5,6v0.8c0,0.7-0.4,1.1-1,1.1h-1.3v4.7c0,0.5,0.2,0.9,0.5,1.2c0.2,0.2,0.5,0.3,0.9,0.3V15
		c0,0.5-0.2,0.7-0.6,0.8c-0.3,0.1-0.7,0.1-1-0.2c-0.5-0.2-0.9-0.6-1.2-1.1c-0.3-0.5-0.5-1.2-0.5-2V3.5c0-0.7,0.4-1,1.1-1h0.9v3.6
		L173.5,6L173.5,6z"/>
	<path class="ilawyer-st0" d="M176.2,2.5h0.9v0.9c0,0.7-0.4,1-1.1,1h-0.9V3.5C175.1,2.8,175.5,2.5,176.2,2.5z M175.1,7.1c0-0.7,0.4-1,1.1-1
		h0.9v9.8h-0.9c-0.7,0-1.1-0.4-1.1-1V7.1z"/>
	<path class="ilawyer-st0" d="M180.8,6.8c0.9-0.8,1.9-1.1,3.1-1.1c1.2,0,2.2,0.4,3.1,1.1c0.9,0.8,1.4,1.7,1.4,2.8v6.3h-0.9
		c-0.7,0-1.1-0.4-1.1-1V9.7c0-0.5-0.2-0.9-0.7-1.3c-0.5-0.5-1.2-0.6-1.9-0.6c-0.8,0-1.4,0.2-1.9,0.6c-0.5,0.4-0.7,0.8-0.7,1.3v6.3
		h-0.8c-0.7,0-1.1-0.4-1.1-1V9.8C179.4,8.5,179.9,7.6,180.8,6.8z"/>
	<path class="ilawyer-st0" d="M198.3,6.8c1,0.8,1.5,1.8,1.5,2.9v6c0,0.6-0.2,1.2-0.4,1.6c-0.5,1-1.5,1.6-2.5,1.9c-0.5,0.2-1.1,0.2-1.7,0.2
		c-0.5,0-1-0.1-1.5-0.2c-0.5-0.1-0.8-0.3-0.9-0.5c-0.2-0.2-0.2-0.5-0.1-0.9l0.2-0.8c0.5,0.2,1,0.3,1.7,0.3c0.6,0,1.2-0.1,1.7-0.2
		c0.9-0.2,1.4-0.9,1.4-1.7v-0.4c-0.9,0.5-1.7,0.8-2.8,0.8c-1.2,0-2.3-0.4-3.2-1.2c-1-0.8-1.5-1.8-1.5-2.9V9.5c0-1.2,0.5-2.2,1.5-2.9
		c0.9-0.8,2-1.2,3.2-1.2C196.3,5.7,197.4,6.1,198.3,6.8z M195.1,7.7c-0.8,0-1.5,0.2-2,0.7c-0.5,0.4-0.8,0.8-0.8,1.5v2.3
		c0,0.5,0.2,1,0.8,1.5c0.5,0.5,1.2,0.7,2,0.7c0.8,0,1.5-0.2,2-0.7c0.5-0.4,0.8-0.8,0.8-1.5V9.8c0-0.5-0.2-1-0.8-1.5
		C196.5,7.9,195.9,7.7,195.1,7.7z"/>
	<path class="ilawyer-st0" d="M203.2,13.6h0.9v1.2c0,0.7-0.4,1-1.1,1h-0.8v-1.2C202.2,14,202.6,13.6,203.2,13.6z"/>
	<path class="ilawyer-st0" d="M206.2,9.6c0-1.1,0.5-2,1.4-2.8c0.9-0.8,1.9-1.1,3.1-1.1s2.2,0.4,3.1,1.1c0.5,0.5,0.9,0.9,1.2,1.5l-0.9,0.5
		c-0.5,0.2-0.9,0.2-1.3-0.2c-0.2-0.2-0.2-0.2-0.2-0.3c-0.5-0.5-1.2-0.6-1.9-0.6c-0.8,0-1.4,0.2-1.9,0.6s-0.7,0.8-0.7,1.3v2.6
		c0,0.5,0.2,0.9,0.7,1.3c0.5,0.4,1.2,0.6,1.9,0.6c0.8,0,1.4-0.2,1.9-0.6c0.1-0.1,0.2-0.2,0.2-0.3c0.4-0.4,0.8-0.5,1.3-0.2l0.9,0.5
		c-0.2,0.6-0.6,1.1-1.2,1.5c-0.9,0.7-1.9,1.1-3.1,1.1c-1.2,0-2.2-0.4-3.1-1.1c-0.9-0.8-1.4-1.7-1.4-2.8V9.6z"/>
	<path class="ilawyer-st0" d="M224.4,6.8c1,0.8,1.5,1.8,1.5,2.9v2.3c0,1.2-0.5,2.2-1.5,2.9c-0.9,0.8-2,1.2-3.2,1.2c-1.2,0-2.3-0.4-3.2-1.2
		c-1-0.8-1.5-1.8-1.5-2.9V9.8c0-1.2,0.5-2.2,1.5-2.9c0.9-0.8,2-1.2,3.2-1.2C222.3,5.7,223.5,6.1,224.4,6.8z M221.1,7.7
		c-0.8,0-1.5,0.2-2,0.7c-0.5,0.4-0.8,0.8-0.8,1.5v2.3c0,0.5,0.2,1,0.8,1.5c0.5,0.5,1.2,0.7,2,0.7c0.8,0,1.5-0.2,2-0.7
		c0.5-0.4,0.8-0.8,0.8-1.5V9.8c0-0.5-0.2-1-0.8-1.5C222.6,7.9,221.9,7.7,221.1,7.7z"/>
	<path class="ilawyer-st0" d="M239.1,8.1c-0.3-0.3-0.8-0.5-1.5-0.5c-0.6,0-1.1,0.2-1.5,0.5c-0.4,0.4-0.5,0.9-0.5,1.6v6h-0.8
		c-0.7,0-1.1-0.4-1.1-1v-5c0-0.7-0.2-1.2-0.5-1.6c-0.4-0.4-0.8-0.5-1.5-0.5c-0.7,0-1.2,0.2-1.5,0.5c-0.3,0.4-0.5,0.9-0.5,1.6v6h-0.8
		c-0.7,0-1.1-0.4-1.1-1v-5c0-1.2,0.4-2.2,1.1-2.9c0.7-0.8,1.7-1.2,2.9-1.2c1,0,1.9,0.3,2.5,0.9c0.1,0.1,0.2,0.2,0.4,0.4
		c0.2-0.2,0.2-0.3,0.4-0.4c0.7-0.6,1.5-0.9,2.6-0.9c1.2,0,2.2,0.4,2.9,1.2c0.7,0.8,1.1,1.7,1.1,2.9v6h-0.8c-0.7,0-1.1-0.4-1.1-1v-5
		C239.6,9.1,239.5,8.5,239.1,8.1z"/>
</g>
<g>
	<path class="ilawyer-st0" d="M6.7,9.7c0-0.8-0.1-1.7-1-1.7c-0.6,0-1,0.2-1,0.8c0,0.7,0.5,1,1,1.3c0.5,0.4,1.6,1.1,2.2,1.5
		c0.6,0.6,0.8,1.2,0.8,2c0,1.8-1.2,2.7-2.9,2.7c-2.1,0-2.9-1.2-2.9-2.9v-0.7h1.8v0.5c0,0.9,0.2,1.6,1.1,1.6c0.8,0,1.1-0.4,1.1-1.1
		c0-0.5-0.2-0.9-0.7-1.2C5.1,12,4,11.5,3.3,10.5C3,10.1,2.8,9.6,2.8,9.1c0-1.6,0.9-2.5,2.8-2.5c2.8,0,2.7,2.2,2.8,3.1
		C8.4,9.7,6.7,9.7,6.7,9.7z"/>
	<path class="ilawyer-st0" d="M10.6,16.3V6.8h1.8v9.4H10.6z"/>
	<path class="ilawyer-st0" d="M13.9,6.8h5.9v1.4h-2.1v8h-1.8v-8h-2.1L13.9,6.8L13.9,6.8z"/>
	<path class="ilawyer-st0" d="M21.3,16.3V6.8h4.9v1.4H23v2.4H26V12H23v2.9h3.2v1.4L21.3,16.3L21.3,16.3z"/>
	<path class="ilawyer-st0" d="M31.8,16.3V6.8h2.9c0.8,0,1.5,0.1,2,0.7c0.4,0.5,0.5,1.1,0.5,1.7c0,0.8-0.2,1.6-1.2,2l0,0c1,0.2,1.4,1,1.4,2.2
		c0,0.4,0,0.8-0.2,1.2c-0.4,1.2-1.1,1.7-2.3,1.7H31.8L31.8,16.3z M33.9,10.7c0.5,0,1,0,1.2-0.3c0.2-0.2,0.2-0.5,0.2-1
		c0-0.7-0.2-1.1-0.9-1.1h-0.8v2.4C33.6,10.7,33.9,10.7,33.9,10.7z M33.9,14.9c0.4,0,0.8,0,1.1-0.1c0.5-0.2,0.5-0.8,0.5-1.3
		c0-1-0.2-1.5-1.3-1.5h-0.7v2.9H33.9L33.9,14.9z"/>
	<path class="ilawyer-st0" d="M41.5,9.3c0.2,0.5,0.3,0.9,0.4,1.5l0,0c0.2-0.7,0.4-1.2,0.5-1.8l0.9-2.2h1.9l-2.5,5.4v4H41v-4l-2.5-5.4h1.9
		L41.5,9.3z"/>
</g>
</svg>
