<svg version="1.1" id="heder_logo" xmlns="http://www.w3.org/2000/svg" xmlns:xlink="http://www.w3.org/1999/xlink" x="0px" y="0px"
	 viewBox="0 0 81.5 8.3" style="enable-background:new 0 0 81.5 8.3;" xml:space="preserve">
<style type="text/css">
	.heder_logo-st0{fill:#19191A;}
	.heder_logo-st1{fill:#3C4686;}
	.heder_logo-st2{fill:#2C344F;}
</style>
<g>
	<path class="heder_logo-st0" d="M5.8,0.5H0.7v0.2c1.2,0,1.2,0.6,1.2,0.6s0,4.7,0,5.6c0,0.8-1.2,0.8-1.2,0.8v0.2h5.1c0,0,3.2,0,3.2-3.7
		S5.8,0.5,5.8,0.5z M6.2,7.2C5.9,7.5,5.5,7.6,5.1,7.6H4.1c0,0-0.6,0-0.6-0.7s0-6,0-6h1.3c0.5,0,1.1,0.2,1.5,0.5
		c0.6,0.5,1.3,1.4,1.3,3C7.6,6,6.8,6.8,6.2,7.2z"/>
</g>
<path class="heder_logo-st1" d="M14.1,6.7l-2.3-6.3h-1l-0.3,0.6c0,0,0.8,2,1.5,3.7H9.7L9.4,5.4h2.7c0.3,0.7,0.5,1.2,0.5,1.4
	c0.3,0.7-0.6,0.8-0.6,0.8h-0.4v0.3h3.6V7.6C14.4,7.6,14.1,6.7,14.1,6.7z"/>
<path class="heder_logo-st0" d="M12.7,0.5h4.7c0,0,1.8,0,1.8,1.6s-1.8,2-1.8,2s0.6,0,1.1,0.9s1.3,2.2,1.4,2.3c0.2,0.2,0.8,0.3,0.8,0.3v0.3h-2.2
	c0,0-0.5-0.6-0.9-1.5s-0.7-2.2-2.3-2.2V3.9h0.6c0.3,0,0.5-0.1,0.7-0.2C17,3.4,17.4,3,17.4,2.2c0-1.1-0.9-1.4-1.6-1.4
	c-0.4,0-3.2,0-3.2,0V0.5z"/>
<g>
	<path class="heder_logo-st2" d="M27.4,1.7c0.3,0.3,0.4,0.7,0.4,1.2c0,0.3-0.1,0.6-0.2,0.9C27.5,4,27.3,4.2,27,4.3c-0.3,0.1-0.6,0.2-1,0.2
		l-0.3,0c-0.2,0-0.3,0-0.4,0c-0.3,0-0.5,0-0.7,0V4.4c0.1,0,0.2,0,0.2,0c0,0,0.1-0.1,0.1-0.1c0-0.1,0-0.1,0-0.3V1.8
		c0-0.1,0-0.2,0-0.3c0-0.1,0-0.1-0.1-0.1c0,0-0.1,0-0.2,0V1.3c0.1,0,0.3,0,0.6,0h0.1l0.2,0c0.2,0,0.4,0,0.5,0
		C26.7,1.3,27.1,1.4,27.4,1.7z M25.9,1.4c0,0-0.1,0.1-0.1,0.1c0,0.1,0,0.1,0,0.2V4c0,0.1,0,0.2,0,0.2c0,0.1,0.1,0.1,0.1,0.1
		c0,0,0.1,0,0.2,0c0.4,0,0.6-0.1,0.8-0.4c0.2-0.3,0.2-0.6,0.2-1.2S27,2,26.9,1.7c-0.2-0.2-0.4-0.4-0.8-0.4C26,1.4,25.9,1.4,25.9,1.4
		z"/>
	<path class="heder_logo-st2" d="M31,4.5c-0.2,0-0.6,0-1,0c-0.7,0-1.2,0-1.5,0V4.4c0.1,0,0.2,0,0.2,0c0,0,0.1-0.1,0.1-0.1c0-0.1,0-0.1,0-0.3
		V1.8c0-0.1,0-0.2,0-0.3c0-0.1,0-0.1-0.1-0.1c0,0-0.1,0-0.2,0V1.3c0.3,0,0.8,0,1.5,0c0.4,0,0.8,0,1,0c0,0.3,0,0.5,0,0.7
		c0,0.1,0,0.2,0,0.3h-0.1c0-0.3-0.1-0.6-0.2-0.7c-0.1-0.1-0.3-0.2-0.5-0.2h-0.2c-0.1,0-0.2,0-0.2,0c0,0-0.1,0-0.1,0.1
		c0,0,0,0.1,0,0.2v1.1h0.1c0.2,0,0.3-0.1,0.4-0.2c0.1-0.1,0.1-0.3,0.2-0.4h0.1c0,0.1,0,0.3,0,0.4v0.2c0,0.2,0,0.4,0,0.6h-0.1
		c-0.1-0.4-0.2-0.6-0.6-0.6h-0.1v1.1c0,0.1,0,0.2,0,0.2c0,0,0,0.1,0.1,0.1c0,0,0.1,0,0.2,0H30c0.2,0,0.4-0.1,0.5-0.2
		c0.1-0.1,0.2-0.4,0.3-0.7h0.1c0,0.1,0,0.2,0,0.4C30.9,4.1,30.9,4.3,31,4.5z"/>
	<path class="heder_logo-st2" d="M34.7,4.3c-0.1,0.1-0.2,0.2-0.3,0.2c-0.1,0-0.2,0.1-0.3,0.1c-0.2,0-0.3,0-0.4-0.1c-0.1-0.1-0.2-0.2-0.2-0.4
		l-0.1-0.5c0-0.2-0.1-0.4-0.1-0.5C33.2,3,33.1,3,32.9,3h-0.3v1c0,0.1,0,0.2,0,0.3c0,0.1,0,0.1,0.1,0.1c0,0,0.1,0,0.2,0v0.1
		c-0.2,0-0.4,0-0.7,0c-0.3,0-0.6,0-0.7,0V4.4c0.1,0,0.2,0,0.2,0c0,0,0.1-0.1,0.1-0.1c0-0.1,0-0.1,0-0.3V1.8c0-0.1,0-0.2,0-0.3
		c0-0.1,0-0.1-0.1-0.1c0,0-0.1,0-0.2,0V1.3c0.2,0,0.4,0,0.7,0l0.5,0c0.1,0,0.1,0,0.2,0c0.4,0,0.7,0.1,0.9,0.2
		c0.2,0.1,0.3,0.3,0.3,0.6c0,0.2-0.1,0.4-0.2,0.6c-0.2,0.2-0.4,0.3-0.8,0.3c0.3,0,0.5,0.1,0.6,0.2c0.1,0.1,0.2,0.2,0.3,0.4L34.2,4
		c0,0.1,0.1,0.2,0.1,0.3c0,0,0.1,0.1,0.1,0.1c0,0,0.1,0,0.1,0C34.5,4.3,34.6,4.3,34.7,4.3L34.7,4.3z M32.7,1.4c0,0-0.1,0.1-0.1,0.1
		c0,0.1,0,0.1,0,0.2v1.1h0.2c0.2,0,0.4-0.1,0.5-0.2c0.1-0.1,0.1-0.3,0.1-0.6c0-0.2,0-0.4-0.1-0.6c-0.1-0.1-0.2-0.2-0.4-0.2
		C32.8,1.4,32.8,1.4,32.7,1.4z"/>
	<path class="heder_logo-st2" d="M38.7,1.4c0,0-0.1,0.1-0.1,0.1s0,0.1,0,0.3V4c0,0.1,0,0.2,0,0.3c0,0.1,0,0.1,0.1,0.1c0,0,0.1,0,0.2,0v0.1
		c-0.2,0-0.4,0-0.7,0c-0.3,0-0.6,0-0.7,0V4.4c0.1,0,0.2,0,0.2,0c0.1,0,0.1-0.1,0.1-0.1c0-0.1,0-0.1,0-0.3V1.6l-1.1,2.9h-0.1
		l-1.2-2.9v2.2c0,0.2,0,0.3,0,0.4c0,0.1,0.1,0.1,0.1,0.2c0.1,0,0.2,0.1,0.3,0.1v0.1c-0.1,0-0.3,0-0.5,0c-0.2,0-0.3,0-0.4,0V4.4
		c0.1,0,0.2,0,0.2-0.1c0,0,0.1-0.1,0.1-0.2c0-0.1,0-0.2,0-0.4v-2c0-0.1,0-0.2,0-0.3s0-0.1-0.1-0.1c0,0-0.1,0-0.2,0V1.3
		c0.1,0,0.2,0,0.4,0c0.3,0,0.5,0,0.7,0L37,3.5l0.8-2.2h0.3c0.3,0,0.5,0,0.7,0v0.1C38.8,1.4,38.7,1.4,38.7,1.4z"/>
	<path class="heder_logo-st2" d="M42,4.5c-0.2,0-0.6,0-1,0c-0.7,0-1.2,0-1.5,0V4.4c0.1,0,0.2,0,0.2,0c0,0,0.1-0.1,0.1-0.1c0-0.1,0-0.1,0-0.3
		V1.8c0-0.1,0-0.2,0-0.3s0-0.1-0.1-0.1c0,0-0.1,0-0.2,0V1.3c0.3,0,0.8,0,1.5,0c0.4,0,0.8,0,1,0c0,0.3,0,0.5,0,0.7c0,0.1,0,0.2,0,0.3
		h-0.1c0-0.3-0.1-0.6-0.2-0.7c-0.1-0.1-0.3-0.2-0.5-0.2h-0.2c-0.1,0-0.2,0-0.2,0c0,0-0.1,0-0.1,0.1c0,0,0,0.1,0,0.2v1.1h0.1
		c0.2,0,0.3-0.1,0.4-0.2c0.1-0.1,0.1-0.3,0.2-0.4h0.1c0,0.1,0,0.3,0,0.4v0.2c0,0.2,0,0.4,0,0.6h-0.1c-0.1-0.4-0.2-0.6-0.6-0.6h-0.1
		v1.1c0,0.1,0,0.2,0,0.2c0,0,0,0.1,0.1,0.1c0,0,0.1,0,0.2,0h0.2c0.2,0,0.4-0.1,0.5-0.2c0.1-0.1,0.2-0.4,0.3-0.7H42
		c0,0.1,0,0.2,0,0.4C41.9,4.1,42,4.3,42,4.5z"/>
	<path class="heder_logo-st2" d="M45.7,4.3c-0.1,0.1-0.2,0.2-0.3,0.2c-0.1,0-0.2,0.1-0.3,0.1c-0.2,0-0.3,0-0.4-0.1c-0.1-0.1-0.2-0.2-0.2-0.4
		l-0.1-0.5c0-0.2-0.1-0.4-0.1-0.5C44.2,3,44.1,3,44,3h-0.3v1c0,0.1,0,0.2,0,0.3c0,0.1,0,0.1,0.1,0.1c0,0,0.1,0,0.2,0v0.1
		c-0.2,0-0.4,0-0.7,0c-0.3,0-0.6,0-0.7,0V4.4c0.1,0,0.2,0,0.2,0c0,0,0.1-0.1,0.1-0.1c0-0.1,0-0.1,0-0.3V1.8c0-0.1,0-0.2,0-0.3
		c0-0.1,0-0.1-0.1-0.1c0,0-0.1,0-0.2,0V1.3c0.2,0,0.4,0,0.7,0l0.5,0c0.1,0,0.1,0,0.2,0c0.4,0,0.7,0.1,0.9,0.2
		c0.2,0.1,0.3,0.3,0.3,0.6c0,0.2-0.1,0.4-0.2,0.6c-0.2,0.2-0.4,0.3-0.8,0.3c0.3,0,0.5,0.1,0.6,0.2c0.1,0.1,0.2,0.2,0.3,0.4L45.2,4
		c0,0.1,0.1,0.2,0.1,0.3c0,0,0.1,0.1,0.1,0.1c0,0,0.1,0,0.1,0C45.6,4.3,45.6,4.3,45.7,4.3L45.7,4.3z M43.8,1.4c0,0-0.1,0.1-0.1,0.1
		c0,0.1,0,0.1,0,0.2v1.1h0.2c0.2,0,0.4-0.1,0.5-0.2c0.1-0.1,0.1-0.3,0.1-0.6c0-0.2,0-0.4-0.1-0.6c-0.1-0.1-0.2-0.2-0.4-0.2
		C43.9,1.4,43.8,1.4,43.8,1.4z"/>
	<path class="heder_logo-st2" d="M49.8,4.3c0.1,0,0.1,0.1,0.2,0.1v0.1c-0.2,0-0.4,0-0.7,0c-0.3,0-0.5,0-0.7,0V4.4c0.1,0,0.2,0,0.2,0
		c0,0,0.1-0.1,0.1-0.1c0-0.1,0-0.1-0.1-0.2l-0.3-0.7h-1l-0.1,0.3c-0.1,0.2-0.1,0.4-0.1,0.5c0,0.1,0,0.2,0.1,0.2
		c0.1,0,0.2,0.1,0.3,0.1v0.1c-0.2,0-0.4,0-0.6,0c-0.1,0-0.3,0-0.3,0V4.4c0.1,0,0.3-0.2,0.4-0.5l1-2.7c0,0,0.1,0,0.2,0
		c0.1,0,0.1,0,0.2,0l1.1,2.9C49.7,4.2,49.8,4.3,49.8,4.3z M48.6,3.2L48.1,2l-0.5,1.2H48.6z"/>
	<path class="heder_logo-st2" d="M51.3,3.2V4c0,0.1,0,0.2,0,0.3c0,0.1,0.1,0.1,0.1,0.1c0.1,0,0.2,0,0.3,0v0.1c-0.4,0-0.7,0-0.8,0
		c-0.2,0-0.3,0-0.6,0l-0.1,0V4.4c0.1,0,0.2,0,0.2,0c0,0,0.1-0.1,0.1-0.1c0-0.1,0-0.1,0-0.3V1.8c0-0.1,0-0.2,0-0.3
		c0-0.1,0-0.1-0.1-0.1c0,0-0.1,0-0.2,0V1.3c0.2,0,0.4,0,0.7,0l0.5,0c0.1,0,0.1,0,0.2,0c0.4,0,0.7,0.1,0.9,0.2
		c0.2,0.2,0.3,0.4,0.3,0.7c0,0.2,0,0.3-0.1,0.5c-0.1,0.2-0.2,0.3-0.4,0.4c-0.2,0.1-0.5,0.2-0.8,0.2H51.3z M51.4,1.4
		c0,0-0.1,0.1-0.1,0.1c0,0.1,0,0.1,0,0.2v1.3h0.2C51.8,3.1,52,3,52,2.9c0.1-0.2,0.1-0.4,0.1-0.6c0-0.3,0-0.5-0.1-0.7
		c-0.1-0.1-0.2-0.2-0.4-0.2C51.5,1.4,51.5,1.4,51.4,1.4z"/>
	<path class="heder_logo-st2" d="M54.5,3.2V4c0,0.1,0,0.2,0,0.3c0,0.1,0.1,0.1,0.1,0.1c0.1,0,0.2,0,0.3,0v0.1c-0.4,0-0.7,0-0.8,0
		c-0.2,0-0.3,0-0.6,0l-0.1,0V4.4c0.1,0,0.2,0,0.2,0c0,0,0.1-0.1,0.1-0.1c0-0.1,0-0.1,0-0.3V1.8c0-0.1,0-0.2,0-0.3
		c0-0.1,0-0.1-0.1-0.1c0,0-0.1,0-0.2,0V1.3c0.2,0,0.4,0,0.7,0l0.5,0c0.1,0,0.1,0,0.2,0c0.4,0,0.7,0.1,0.9,0.2
		c0.2,0.2,0.3,0.4,0.3,0.7c0,0.2,0,0.3-0.1,0.5c-0.1,0.2-0.2,0.3-0.4,0.4c-0.2,0.1-0.5,0.2-0.8,0.2H54.5z M54.6,1.4
		c0,0-0.1,0.1-0.1,0.1c0,0.1,0,0.1,0,0.2v1.3h0.2c0.2,0,0.4-0.1,0.5-0.2c0.1-0.2,0.1-0.4,0.1-0.6c0-0.3,0-0.5-0.1-0.7
		c-0.1-0.1-0.2-0.2-0.4-0.2C54.7,1.4,54.6,1.4,54.6,1.4z"/>
	<path class="heder_logo-st2" d="M59.1,4.5c-0.2,0-0.6,0-1,0c-0.7,0-1.2,0-1.5,0V4.4c0.1,0,0.2,0,0.2,0c0,0,0.1-0.1,0.1-0.1c0-0.1,0-0.1,0-0.3
		V1.8c0-0.1,0-0.2,0-0.3c0-0.1,0-0.1-0.1-0.1c0,0-0.1,0-0.2,0V1.3c0.3,0,0.8,0,1.5,0c0.4,0,0.8,0,1,0c0,0.3,0,0.5,0,0.7
		c0,0.1,0,0.2,0,0.3h-0.1c0-0.3-0.1-0.6-0.2-0.7c-0.1-0.1-0.3-0.2-0.5-0.2h-0.2c-0.1,0-0.2,0-0.2,0c0,0-0.1,0-0.1,0.1
		c0,0,0,0.1,0,0.2v1.1h0.1c0.2,0,0.3-0.1,0.4-0.2c0.1-0.1,0.1-0.3,0.2-0.4h0.1c0,0.1,0,0.3,0,0.4v0.2c0,0.2,0,0.4,0,0.6h-0.1
		c-0.1-0.4-0.2-0.6-0.6-0.6h-0.1v1.1c0,0.1,0,0.2,0,0.2c0,0,0,0.1,0.1,0.1c0,0,0.1,0,0.2,0h0.2c0.2,0,0.4-0.1,0.5-0.2
		C58.8,4,58.9,3.8,59,3.4h0.1c0,0.1,0,0.2,0,0.4C59.1,4.1,59.1,4.3,59.1,4.5z"/>
	<path class="heder_logo-st2" d="M61.1,1.4c-0.1,0-0.2,0-0.2,0c-0.1,0-0.1,0.1-0.1,0.1c0,0.1,0,0.1,0,0.3v2.3c0,0.1,0,0.2,0,0.2
		c0,0,0,0.1,0.1,0.1c0,0,0.1,0,0.2,0h0.2c0.2,0,0.4-0.1,0.5-0.3c0.2-0.2,0.2-0.4,0.3-0.7h0.1c0,0.1,0,0.2,0,0.4c0,0.3,0,0.5,0,0.7
		c-0.2,0-0.6,0-1,0c-0.7,0-1.2,0-1.5,0V4.4c0.1,0,0.2,0,0.2,0c0,0,0.1-0.1,0.1-0.1c0-0.1,0-0.1,0-0.3V1.8c0-0.1,0-0.2,0-0.3
		s0-0.1-0.1-0.1c0,0-0.1,0-0.2,0V1.3c0.2,0,0.4,0,0.7,0C60.7,1.3,61,1.3,61.1,1.4L61.1,1.4z"/>
	<path class="heder_logo-st2" d="M67.1,4.3c-0.1,0.1-0.2,0.2-0.3,0.2c-0.1,0-0.2,0.1-0.3,0.1c-0.2,0-0.3,0-0.4-0.1c-0.1-0.1-0.2-0.2-0.2-0.4
		l-0.1-0.5c0-0.2-0.1-0.4-0.1-0.5C65.6,3,65.5,3,65.4,3h-0.3v1c0,0.1,0,0.2,0,0.3c0,0.1,0,0.1,0.1,0.1c0,0,0.1,0,0.2,0v0.1
		c-0.2,0-0.4,0-0.7,0c-0.3,0-0.6,0-0.7,0V4.4c0.1,0,0.2,0,0.2,0c0,0,0.1-0.1,0.1-0.1c0-0.1,0-0.1,0-0.3V1.8c0-0.1,0-0.2,0-0.3
		c0-0.1,0-0.1-0.1-0.1c0,0-0.1,0-0.2,0V1.3c0.2,0,0.4,0,0.7,0l0.5,0c0.1,0,0.1,0,0.2,0c0.4,0,0.7,0.1,0.9,0.2
		c0.2,0.1,0.3,0.3,0.3,0.6c0,0.2-0.1,0.4-0.2,0.6C66.3,2.8,66,2.9,65.6,3c0.3,0,0.5,0.1,0.6,0.2c0.1,0.1,0.2,0.2,0.3,0.4L66.6,4
		c0,0.1,0.1,0.2,0.1,0.3s0.1,0.1,0.1,0.1c0,0,0.1,0,0.1,0C67,4.3,67,4.3,67.1,4.3L67.1,4.3z M65.2,1.4c0,0-0.1,0.1-0.1,0.1
		c0,0.1,0,0.1,0,0.2v1.1h0.2c0.2,0,0.4-0.1,0.5-0.2c0.1-0.1,0.1-0.3,0.1-0.6c0-0.2,0-0.4-0.1-0.6c-0.1-0.1-0.2-0.2-0.4-0.2
		C65.3,1.4,65.2,1.4,65.2,1.4z"/>
	<path class="heder_logo-st2" d="M70.3,1.4c-0.1,0-0.2,0-0.2,0.1c0,0-0.1,0.1-0.1,0.2c0,0.1,0,0.2,0,0.4v1.2c0,0.4-0.1,0.8-0.2,1
		c-0.1,0.1-0.2,0.2-0.4,0.3c-0.2,0.1-0.3,0.1-0.6,0.1c-0.4,0-0.6-0.1-0.8-0.2c-0.1-0.1-0.2-0.3-0.3-0.4c0-0.2-0.1-0.4-0.1-0.7V1.8
		c0-0.1,0-0.2,0-0.3s0-0.1-0.1-0.1c0,0-0.1,0-0.2,0V1.3c0.2,0,0.4,0,0.7,0c0.3,0,0.6,0,0.7,0v0.1c-0.1,0-0.2,0-0.2,0
		c-0.1,0-0.1,0.1-0.1,0.1c0,0.1,0,0.1,0,0.3v1.7c0,0.3,0,0.6,0.1,0.7c0.1,0.2,0.3,0.2,0.5,0.2c0.3,0,0.5-0.1,0.6-0.3
		c0.1-0.2,0.2-0.5,0.2-0.9V2c0-0.2,0-0.3,0-0.4c0-0.1-0.1-0.1-0.1-0.2c-0.1,0-0.2-0.1-0.3-0.1V1.3c0.1,0,0.3,0,0.5,0
		C70.1,1.3,70.2,1.3,70.3,1.4L70.3,1.4z"/>
	<path class="heder_logo-st2" d="M73.5,1.7c0.3,0.3,0.4,0.7,0.4,1.2c0,0.3-0.1,0.6-0.2,0.9c-0.1,0.2-0.4,0.4-0.6,0.6c-0.3,0.1-0.6,0.2-1,0.2
		l-0.3,0c-0.2,0-0.3,0-0.4,0c-0.3,0-0.5,0-0.7,0V4.4c0.1,0,0.2,0,0.2,0c0,0,0.1-0.1,0.1-0.1c0-0.1,0-0.1,0-0.3V1.8
		c0-0.1,0-0.2,0-0.3s0-0.1-0.1-0.1c0,0-0.1,0-0.2,0V1.3c0.1,0,0.3,0,0.6,0h0.1l0.2,0c0.2,0,0.4,0,0.5,0C72.8,1.3,73.2,1.4,73.5,1.7z
		 M72,1.4c0,0-0.1,0.1-0.1,0.1c0,0.1,0,0.1,0,0.2V4c0,0.1,0,0.2,0,0.2c0,0.1,0.1,0.1,0.1,0.1c0,0,0.1,0,0.2,0c0.4,0,0.6-0.1,0.8-0.4
		c0.2-0.3,0.2-0.6,0.2-1.2S73.1,2,73,1.7c-0.2-0.2-0.4-0.4-0.8-0.4C72.1,1.4,72,1.4,72,1.4z"/>
	<path class="heder_logo-st2" d="M77,4.5c-0.2,0-0.6,0-1,0c-0.7,0-1.2,0-1.5,0V4.4c0.1,0,0.2,0,0.2,0c0,0,0.1-0.1,0.1-0.1c0-0.1,0-0.1,0-0.3
		V1.8c0-0.1,0-0.2,0-0.3s0-0.1-0.1-0.1c0,0-0.1,0-0.2,0V1.3c0.3,0,0.8,0,1.5,0c0.4,0,0.8,0,1,0c0,0.3,0,0.5,0,0.7c0,0.1,0,0.2,0,0.3
		h-0.1c0-0.3-0.1-0.6-0.2-0.7c-0.1-0.1-0.3-0.2-0.5-0.2h-0.2c-0.1,0-0.2,0-0.2,0c0,0-0.1,0-0.1,0.1c0,0,0,0.1,0,0.2v1.1h0.1
		c0.2,0,0.3-0.1,0.4-0.2c0.1-0.1,0.1-0.3,0.2-0.4h0.1c0,0.1,0,0.3,0,0.4v0.2c0,0.2,0,0.4,0,0.6h-0.1c-0.1-0.4-0.2-0.6-0.6-0.6h-0.1
		v1.1c0,0.1,0,0.2,0,0.2c0,0,0,0.1,0.1,0.1c0,0,0.1,0,0.2,0h0.2c0.2,0,0.4-0.1,0.5-0.2c0.1-0.1,0.2-0.4,0.3-0.7H77
		c0,0.1,0,0.2,0,0.4C77,4.1,77,4.3,77,4.5z"/>
	<path class="heder_logo-st2" d="M80.7,4.3c-0.1,0.1-0.2,0.2-0.3,0.2c-0.1,0-0.2,0.1-0.3,0.1c-0.2,0-0.3,0-0.4-0.1c-0.1-0.1-0.2-0.2-0.2-0.4
		l-0.1-0.5c0-0.2-0.1-0.4-0.1-0.5C79.2,3,79.1,3,79,3h-0.3v1c0,0.1,0,0.2,0,0.3c0,0.1,0,0.1,0.1,0.1c0,0,0.1,0,0.2,0v0.1
		c-0.2,0-0.4,0-0.7,0c-0.3,0-0.6,0-0.7,0V4.4c0.1,0,0.2,0,0.2,0c0,0,0.1-0.1,0.1-0.1c0-0.1,0-0.1,0-0.3V1.8c0-0.1,0-0.2,0-0.3
		c0-0.1,0-0.1-0.1-0.1c0,0-0.1,0-0.2,0V1.3c0.2,0,0.4,0,0.7,0l0.5,0c0.1,0,0.1,0,0.2,0c0.4,0,0.7,0.1,0.9,0.2
		c0.2,0.1,0.3,0.3,0.3,0.6c0,0.2-0.1,0.4-0.2,0.6c-0.2,0.2-0.4,0.3-0.8,0.3c0.3,0,0.5,0.1,0.6,0.2c0.1,0.1,0.2,0.2,0.3,0.4L80.3,4
		c0,0.1,0.1,0.2,0.1,0.3s0.1,0.1,0.1,0.1c0,0,0.1,0,0.1,0C80.6,4.3,80.6,4.3,80.7,4.3L80.7,4.3z M78.8,1.4c0,0-0.1,0.1-0.1,0.1
		c0,0.1,0,0.1,0,0.2v1.1h0.2c0.2,0,0.4-0.1,0.5-0.2c0.1-0.1,0.1-0.3,0.1-0.6c0-0.2,0-0.4-0.1-0.6c-0.1-0.1-0.2-0.2-0.4-0.2
		C78.9,1.4,78.9,1.4,78.8,1.4z"/>
</g>
<g>
	<g>
		<path class="heder_logo-st2" d="M38.6,7.7l-0.1-0.3h-0.6l-0.1,0.3h-0.3L38,6.3h0.3l0.6,1.5H38.6z M38.1,6.7l-0.2,0.4h0.4L38.1,6.7z"/>
		<path class="heder_logo-st2" d="M40.2,6.5v1.2h-0.3V6.5h-0.4V6.3h1.2v0.3H40.2z"/>
		<path class="heder_logo-st2" d="M42.1,6.5v1.2h-0.3V6.5h-0.4V6.3h1.2v0.3H42.1z"/>
		<path class="heder_logo-st2" d="M44.6,7.5c-0.1,0.1-0.3,0.2-0.5,0.2s-0.4-0.1-0.5-0.2c-0.1-0.1-0.2-0.3-0.2-0.5s0.1-0.4,0.2-0.5
			s0.3-0.2,0.5-0.2s0.4,0.1,0.5,0.2c0.1,0.1,0.2,0.3,0.2,0.5S44.7,7.4,44.6,7.5z M44.4,7c0-0.1,0-0.2-0.1-0.3
			c-0.1-0.1-0.2-0.1-0.3-0.1c-0.1,0-0.2,0-0.3,0.1c-0.1,0.1-0.1,0.2-0.1,0.3c0,0.1,0,0.2,0.1,0.3c0.1,0.1,0.2,0.1,0.3,0.1
			c0.1,0,0.2,0,0.3-0.1C44.4,7.2,44.4,7.1,44.4,7z"/>
		<path class="heder_logo-st2" d="M46.9,6.7c0,0.2-0.1,0.4-0.3,0.5L47,7.7h-0.4l-0.3-0.5H46v0.5h-0.3V6.3h0.6c0.2,0,0.4,0,0.5,0.1
			C46.8,6.5,46.9,6.6,46.9,6.7z M46.5,6.9c0,0,0.1-0.1,0.1-0.2c0-0.1,0-0.1-0.1-0.2c0,0-0.1,0-0.2,0H46V7h0.2
			C46.3,7,46.4,7,46.5,6.9z"/>
		<path class="heder_logo-st2" d="M48.8,6.3h0.3v1.5h-0.3l-0.7-0.9v0.9h-0.3V6.3h0.3l0.7,0.9V6.3z"/>
		<path class="heder_logo-st2" d="M51.2,6.3v0.3h-0.7v0.3h0.7v0.3h-0.7v0.3h0.8v0.3h-1.1V6.3H51.2z"/>
		<path class="heder_logo-st2" d="M52.8,7.7h-0.3V7.1l-0.5-0.9h0.4l0.3,0.5l0.3-0.5h0.4l-0.5,0.9V7.7z"/>
		<path class="heder_logo-st2" d="M54.3,6.6c0,0,0,0.1,0,0.1s0,0.1,0.1,0.1c0,0,0.1,0.1,0.3,0.1c0.1,0,0.2,0.1,0.3,0.2c0.1,0.1,0.1,0.2,0.1,0.3
			c0,0.1,0,0.2-0.1,0.3c-0.1,0.1-0.2,0.1-0.4,0.1c-0.2,0-0.4-0.1-0.6-0.3l0.2-0.2c0.2,0.1,0.3,0.2,0.4,0.2c0.1,0,0.1,0,0.1,0
			c0,0,0.1-0.1,0.1-0.1c0,0,0-0.1-0.1-0.1c0,0-0.1-0.1-0.2-0.1c-0.2,0-0.3-0.1-0.4-0.2C54,6.9,54,6.8,54,6.7c0-0.1,0.1-0.2,0.2-0.3
			c0.1-0.1,0.2-0.1,0.4-0.1c0.1,0,0.2,0,0.3,0.1c0.1,0,0.2,0.1,0.3,0.1l-0.2,0.2c-0.1-0.1-0.3-0.1-0.4-0.1
			C54.4,6.5,54.4,6.5,54.3,6.6z"/>
		<path class="heder_logo-st2" d="M58.2,7.7L58,7.4h-0.6l-0.1,0.3h-0.3l0.6-1.5h0.3l0.6,1.5H58.2z M57.7,6.7l-0.2,0.4h0.4L57.7,6.7z"/>
		<path class="heder_logo-st2" d="M59.8,6.5v1.2h-0.3V6.5h-0.4V6.3h1.2v0.3H59.8z"/>
		<path class="heder_logo-st2" d="M62.2,7.7V6.3h0.3v1.2h0.6v0.3H62.2z"/>
		<path class="heder_logo-st2" d="M65.1,7.7l-0.1-0.3h-0.6l-0.1,0.3h-0.3l0.6-1.5h0.3l0.6,1.5H65.1z M64.6,6.7l-0.2,0.4h0.4L64.6,6.7z"/>
		<path class="heder_logo-st2" d="M66.6,7.1l0.3-0.8h0.3l0.3,0.8l0.3-0.8h0.4l-0.5,1.5h-0.2l-0.3-1l-0.3,1h-0.2l-0.5-1.5h0.4L66.6,7.1z"/>
	</g>
	<rect x="24.8" y="7" class="heder_logo-st2" width="10.9" height="0.2"/>
	<rect x="69.8" y="7" class="heder_logo-st2" width="10.9" height="0.2"/>
</g>
</svg>
