<svg id="new_sp2" xmlns="http://www.w3.org/2000/svg" viewBox="0 0 668.03 754.3">
  <defs>
    <style>
      .new_sp2-cls-1 {
        fill: #f6f5f4;
      }
    </style>
  </defs>
  <title>new_sp-2bg</title>
  <g>
    <path class="new_sp2-cls-1" d="M-51.6,250A14.31,14.31,0,0,1-64,242.9a14.27,14.27,0,0,1,5.2-19.6L261.8,36.4a14.45,14.45,0,0,1,14.5,0L595,223.2A14.39,14.39,0,0,1,580.4,248L269,65.5-44.4,248A14.78,14.78,0,0,1-51.6,250Z" transform="translate(65.96 328.4)"/>
    <path class="new_sp2-cls-1" d="M269,63.2a14.4,14.4,0,0,1-14.4-14.4V-313.9A14.4,14.4,0,0,1,269-328.3a14.34,14.34,0,0,1,14.4,14.4V48.9A14.38,14.38,0,0,1,269,63.2Z" transform="translate(65.96 328.4)"/>
    <path class="new_sp2-cls-1" d="M269,425.9a13.94,13.94,0,0,1-6.9-1.8l-320.6-176a14.19,14.19,0,0,1-6.9-8.8A14.86,14.86,0,0,1-64,228.2L256.6-321.3a14.4,14.4,0,0,1,12.4-7.1h0a14.28,14.28,0,0,1,12.4,7.2L600.1,228.3a14.55,14.55,0,0,1,1.4,11,14,14,0,0,1-6.9,8.7L275.9,424A12.21,12.21,0,0,1,269,425.9ZM-31.8,230.1,269,395.2,567.9,230.1l-299-515.4Z" transform="translate(65.96 328.4)"/>
  </g>
</svg>
