<svg id="footer_logo" data-name="Layer 1" xmlns="http://www.w3.org/2000/svg" viewBox="0 0 134.8 50.2">
  <defs>
    <style>
      .footer_logo-cls-1 {
        fill: #19191a;
      }

      .footer_logo-cls-2 {
        fill: #3c4686;
      }
    </style>
  </defs>
  <title>footer-logo-01</title>
  <path class="footer_logo-cls-1" d="M35.6,1.2H1.2V2.8C9.5,2.8,9,6.7,9,6.7V44.3c0,5.7-7.8,5.4-7.8,5.4v1.5H35.6s21.9,0,21.9-25S35.6,1.2,35.6,1.2Zm2.6,45.7a13.47,13.47,0,0,1-7.8,2.3H24s-4.4.2-4.4-5V3.3h9.1a15.92,15.92,0,0,1,10,3.6c4,3.4,8.6,9.7,8.6,20.1C47.3,38.4,42.2,44.1,38.2,46.9Z" transform="translate(-1.2 -1.2)"/>
  <path class="footer_logo-cls-2" d="M91.4,43.6,75.6,1.2H68.9L67,5.6s5.5,13.8,9.9,24.9H61.6l-1.8,3.8H78.4c1.7,4.4,3.1,8,3.6,9.4,1.8,4.9-3.8,5.7-3.8,5.7H75.6v2H99.8v-2C93.8,49.2,91.4,43.6,91.4,43.6Z" transform="translate(-1.2 -1.2)"/>
  <path class="footer_logo-cls-1" d="M81.8,1.2h32.1S126,1.5,126,12.1s-12.2,13.6-12.2,13.6,4.4.1,7.4,6.1,8.6,14.6,9.7,15.7,5.1,1.8,5.1,1.8v2H121.1a49.51,49.51,0,0,1-6.1-9.8c-2.9-5.9-4.8-15.2-15.3-15.2V24.5h3.8a8.9,8.9,0,0,0,5-1.5,11.54,11.54,0,0,0,5.2-10.2c0-7.4-6.2-9.2-10.6-9.2H81.7V1.2Z" transform="translate(-1.2 -1.2)"/>
</svg>
