<svg id="testi_three" data-name="Layer 1" xmlns="http://www.w3.org/2000/svg" viewBox="0 0 64.05 72.3"><defs><style>.testi_three-cls-1{fill:#e8cab2;}.testi_three-cls-2{fill:#172c57;}</style></defs><title>testimonials-3</title><path class="testi_three-cls-1" d="M11.7,57.4a1.31,1.31,0,0,1-1.2-.7,1.34,1.34,0,0,1,.5-1.9L41.7,37a1.71,1.71,0,0,1,1.4,0L73.6,54.9a1.39,1.39,0,1,1-1.4,2.4L42.4,39.8l-30,17.5A1.7,1.7,0,0,1,11.7,57.4Z" transform="translate(-10.26 -2)"/><path class="testi_three-cls-1" d="M42.4,39.5A1.37,1.37,0,0,1,41,38.1V3.4a1.4,1.4,0,1,1,2.8,0V38.2A1.35,1.35,0,0,1,42.4,39.5Z" transform="translate(-10.26 -2)"/><path class="testi_three-cls-2" d="M42.4,74.3a1.85,1.85,0,0,1-.7-.2L11,57.3a1.78,1.78,0,0,1-.7-.8,2.08,2.08,0,0,1,.1-1.1L41.2,2.7A1.52,1.52,0,0,1,42.4,2h0a1.52,1.52,0,0,1,1.2.7L74.1,55.3a1.38,1.38,0,0,1,.1,1.1,1,1,0,0,1-.7.8L43.1,74.1A1.45,1.45,0,0,1,42.4,74.3ZM13.6,55.5,42.4,71.3,71,55.5,42.4,6.2Z" transform="translate(-10.26 -2)"/></svg>