<svg id="new_phone" xmlns="http://www.w3.org/2000/svg" viewBox="0 0 25 24.9"><defs><style>.new_phone-cls-1{fill:#fff;}</style></defs><title>icon-phone-01</title><path class="new_phone-cls-1" d="M18.6,17.9a1.27,1.27,0,0,0-1.8-.1L14.5,20a.91.91,0,0,0-.3.7,30.81,30.81,0,0,1-4.6-3.8h0a30.81,30.81,0,0,1-3.8-4.6,1.08,1.08,0,0,0,.7-.3L8.7,9.8A1.27,1.27,0,0,0,8.7,8L6.3,4.9a1.94,1.94,0,0,0-2.4-.6A5.25,5.25,0,0,0,.8,9.1c0,2.7,2.2,6.6,6,10.5h0c3.9,3.8,7.9,6.1,10.6,6.1a5.38,5.38,0,0,0,4.8-3.1,1.94,1.94,0,0,0-.6-2.4Z" transform="translate(-0.8 -0.8)"/><path class="new_phone-cls-1" d="M18.7,13.2a1.2,1.2,0,0,0,2.4,0,7.81,7.81,0,0,0-7.8-7.8,1.16,1.16,0,0,0-1.2,1.2,1.16,1.16,0,0,0,1.2,1.2A5.51,5.51,0,0,1,18.7,13.2Z" transform="translate(-0.8 -0.8)"/><path class="new_phone-cls-1" d="M13.4.8A1.16,1.16,0,0,0,12.2,2a1.16,1.16,0,0,0,1.2,1.2,10,10,0,0,1,10,10,1.2,1.2,0,1,0,2.4,0A12.4,12.4,0,0,0,13.4.8Z" transform="translate(-0.8 -0.8)"/></svg>