<svg id="sec_eight" data-name="Layer 1" xmlns="http://www.w3.org/2000/svg" viewBox="0 0 457.3 371.95">
  <defs>
    <style>
      .sec_eight-cls-1 {
        fill: #f6f5f4;
      }
    </style>
  </defs>
  <title>content-3-bg-01</title>
  <path class="sec_eight-cls-1" d="M420,234.9a10.24,10.24,0,0,1-7.1-2.9L201.6,27.3-9.7,232a10.35,10.35,0,0,1-14.5-.2,10.35,10.35,0,0,1,.2-14.5L194.4,5.7a10.27,10.27,0,0,1,14.2,0L427,217.3a10.17,10.17,0,0,1,.2,14.5A9.54,9.54,0,0,1,420,234.9Z" transform="translate(27.1 -2.85)"/>
  <path class="sec_eight-cls-1" d="M116.2,374.8a9.91,9.91,0,0,1-7.4-3.2L-24.3,231.7a10.23,10.23,0,0,1-2.8-7.1V54a10.38,10.38,0,0,1,6.3-9.5A10.36,10.36,0,0,1-9.6,46.7L208.8,265.1a10.27,10.27,0,0,1,.3,14.2l-85.3,92.1a10.17,10.17,0,0,1-7.6,3.4ZM-6.6,220.6,116.2,349.7l71.2-76.9-194-194Z" transform="translate(27.1 -2.85)"/>
  <path class="sec_eight-cls-1" d="M286.9,374.8h0a10.06,10.06,0,0,1-7.5-3.3L194,279.4a10.27,10.27,0,0,1,.3-14.2L412.7,46.8a10.26,10.26,0,0,1,17.5,7.3V224.7a10.42,10.42,0,0,1-2.8,7.1L294.3,371.7A10.2,10.2,0,0,1,286.9,374.8ZM215.8,272.7,287,349.6,409.8,220.5V78.8Z" transform="translate(27.1 -2.85)"/>
</svg>
