<svg id="testi_one" data-name="Layer 1" xmlns="http://www.w3.org/2000/svg" viewBox="0 0 81.15 65.72"><defs><style>.testi_one-cls-1{fill:#e8cab2;}.testi_one-cls-2{fill:#172c57;}</style></defs><title>testimonials-1</title><path class="testi_one-cls-1" d="M42.1,55.6,28.2,31.2a1.2,1.2,0,0,1,0-1.4l4.7-8.7,1.6-3L41,6.1a1.44,1.44,0,0,1,1.3-.8,1.56,1.56,0,0,1,1.3.8l6.3,12,1.5,3,4.5,8.7a1.71,1.71,0,0,1,0,1.4ZM31.2,30.5,42.1,49.6,53,30.5,42.3,10Z" transform="translate(-1.78 -5.3)"/><path class="testi_one-cls-2" d="M81.4,18.2a1.71,1.71,0,0,1,1.3.7,1.36,1.36,0,0,1,0,1.5L53,70.3a1.21,1.21,0,0,1-1.3.7,1.71,1.71,0,0,1-1.3-.7L42.1,55.7,33.8,70.3a1.71,1.71,0,0,1-1.3.7h0a1.71,1.71,0,0,1-1.3-.7L2,20.4a1.36,1.36,0,0,1,0-1.5,1.46,1.46,0,0,1,1.3-.7ZM32.9,21.1H5.9L32.4,66.5,42,49.6l9.7,17,27-45.5H51.5m-3.4,0H36.3" transform="translate(-1.78 -5.3)"/></svg>