<svg id="new_sp1" xmlns="http://www.w3.org/2000/svg" viewBox="0 0 761.5 619.4">
  <defs>
    <style>
      .new_sp1-cls-1 {
        fill: #f6f5f4;
      }
    </style>
  </defs>
  <title>new_sp-1bg</title>
  <g>
    <path class="new_sp1-cls-1" d="M630.7,389.5a17.22,17.22,0,0,1-11.9-4.8L267,43.9-84.8,384.7a17,17,0,0,1-24.1-.4,17,17,0,0,1,.4-24.1L255.1,7.9a17,17,0,0,1,23.7,0L642.5,360.2a17.05,17.05,0,0,1,.4,24.1A16.74,16.74,0,0,1,630.7,389.5Z" transform="translate(113.8 -3.1)"/>
    <path class="new_sp1-cls-1" d="M124.9,622.5a17.18,17.18,0,0,1-12.4-5.3l-221.6-233a17.25,17.25,0,0,1-4.7-11.8V88.4a17,17,0,0,1,10.5-15.7,17.11,17.11,0,0,1,18.6,3.7L279.1,440a17,17,0,0,1,.5,23.6L137.5,617a17.2,17.2,0,0,1-12.4,5.5ZM-79.6,365.7,124.8,580.6l118.6-128-323-323Z" transform="translate(113.8 -3.1)"/>
    <path class="new_sp1-cls-1" d="M409.1,622.5H409a16.82,16.82,0,0,1-12.4-5.5L254.5,463.6A17,17,0,0,1,255,440L618.6,76.3a17,17,0,0,1,29.1,12V372.4a17.25,17.25,0,0,1-4.7,11.8l-221.6,233A17,17,0,0,1,409.1,622.5Zm-118.4-170,118.6,128L613.7,365.6V129.5Z" transform="translate(113.8 -3.1)"/>
  </g>
</svg>
