<svg id="testi_two" data-name="Layer 1" xmlns="http://www.w3.org/2000/svg" viewBox="0 0 66 53.65"><defs><style>.testi_two-cls-1{fill:#e8cab2;}.testi_two-cls-2{fill:#172c57;}</style></defs><title>testimonials-2</title><path class="testi_two-cls-1" d="M73.9,44.8a1.28,1.28,0,0,1-1-.4L42.3,14.9,11.8,44.4a1.48,1.48,0,0,1-2.1-2.1L41.2,11.8a1.45,1.45,0,0,1,2.1,0L74.8,42.3a1.45,1.45,0,0,1,0,2.1A1.09,1.09,0,0,1,73.9,44.8Z" transform="translate(-9.25 -11.35)"/><path class="testi_two-cls-2" d="M30,65a1.61,1.61,0,0,1-1.1-.5L9.7,44.4a1.28,1.28,0,0,1-.4-1V18.7a1.69,1.69,0,0,1,.9-1.4,1.53,1.53,0,0,1,1.6.3L43.3,49.1a1.34,1.34,0,0,1,0,2L31.1,64.5A1.61,1.61,0,0,1,30,65ZM12.3,42.7,30,61.4,40.3,50.3l-28-28Z" transform="translate(-9.25 -11.35)"/><path class="testi_two-cls-2" d="M54.6,65h0a1.61,1.61,0,0,1-1.1-.5L41.2,51.2a1.52,1.52,0,0,1,0-2L72.7,17.7a1.57,1.57,0,0,1,1.6-.3,1.42,1.42,0,0,1,.9,1.4V43.4a1.28,1.28,0,0,1-.4,1L55.7,64.6A1.82,1.82,0,0,1,54.6,65ZM44.4,50.3,54.7,61.4,72.4,42.8V22.3Z" transform="translate(-9.25 -11.35)"/></svg>