<svg id="icon_stars" data-name="Layer 1" xmlns="http://www.w3.org/2000/svg" viewBox="0 0 124.99 56.85">
  <defs>
    <style>
      .icon_stars-cls-1 {
        fill: #e7cab3;
      }
    </style>
  </defs>
  <title>icon-stars</title>
  <path class="icon_stars-cls-1" d="M76.3,10.6c0-.1-.1-.1-.2-.2L68.6,8.8,64.8,2a.21.21,0,0,0-.4,0L60.6,8.8,53,10.5a.22.22,0,0,0-.2.2c0,.1,0,.2.1.2l5.4,5.8L57,24.6c0,.1,0,.2.1.2s.2.1.2,0l7.2-3.5,7.2,3.5h.2c.1-.1.1-.1.1-.2l-1.3-7.9,5.4-5.8C76.3,10.8,76.3,10.7,76.3,10.6Z" transform="translate(-2.06 -1.85)"/>
  <path class="icon_stars-cls-1" d="M107.2,25.2c0-.1,0-.2-.1-.2l-5.9-4.9-.2-7.8c0-.2-.2-.3-.4-.2L94,16.4l-7.4-2.1c-.1,0-.2,0-.2.1a.31.31,0,0,0-.1.2l2.1,7.6-4.8,6.4c-.1.1-.1.2,0,.2s.1.1.2.1l8,.2,4.7,6.5.1.1h.1a.22.22,0,0,0,.2-.2l2.6-7.6,7.5-2.6C107.1,25.4,107.2,25.3,107.2,25.2Z" transform="translate(-2.06 -1.85)"/>
  <path class="icon_stars-cls-1" d="M127,53c0-.1.1-.2,0-.2L123.5,46l2.9-7.3a.22.22,0,0,0-.3-.3l-7.7,1.3-6-4.8c-.1-.1-.2-.1-.2,0s-.1.1-.1.2l-1,7.9-7,4c-.1,0-.1.1-.1.2a.35.35,0,0,0,.1.2l7.3,3.3,1.8,7.8v.1l.1.1c.1,0,.2,0,.2-.1l5.4-6,7.9.6C126.9,53.1,127,53.1,127,53Z" transform="translate(-2.06 -1.85)"/>
  <path class="icon_stars-cls-1" d="M22,25.2c0-.1,0-.2.1-.2L28,20.1l.2-7.8c0-.2.2-.3.4-.2l6.6,4.2,7.4-2.1c.1,0,.2,0,.2.1a.31.31,0,0,1,.1.2l-2.1,7.6,4.8,6.4c.1.1.1.2,0,.2s-.1.1-.2.1l-8,.2-4.7,6.5-.1.1h-.1a.22.22,0,0,1-.2-.2L29.6,28l-7.5-2.6A.35.35,0,0,1,22,25.2Z" transform="translate(-2.06 -1.85)"/>
  <path class="icon_stars-cls-1" d="M2.1,53c0-.1-.1-.2,0-.2L5.6,46,2.7,38.7a.22.22,0,0,1,.3-.3l7.7,1.3,6-4.8c.1-.1.2-.1.2,0s.1.1.1.2L18,43l7,4c.1,0,.1.1.1.2a.35.35,0,0,1-.1.2l-7.3,3.3L16,58.4v.1l-.1.1c-.1,0-.2,0-.2-.1l-5.4-6-7.9.6A.37.37,0,0,1,2.1,53Z" transform="translate(-2.06 -1.85)"/>
</svg>
