<svg version="1.1" id="new_sp1" xmlns="http://www.w3.org/2000/svg" xmlns:xlink="http://www.w3.org/1999/xlink" x="0px" y="0px"
	 viewBox="0 0 536 369" style="enable-background:new 0 0 536 369;" xml:space="preserve">
<style type="text/css">
	.new_sp1-st0{fill:#F6F5F4;}
</style>
<g>
	<g>
		<path class="new_sp1-st0" d="M630.7,389.5c-4.3,0-8.5-1.6-11.9-4.8L267,43.9L-84.8,384.7c-6.8,6.6-17.6,6.4-24.1-0.4
			c-6.6-6.8-6.4-17.6,0.4-24.1L255.1,7.9c6.6-6.4,17.1-6.4,23.7,0l363.7,352.3c6.8,6.6,6.9,17.3,0.4,24.1
			C639.6,387.8,635.1,389.5,630.7,389.5z"/>
	</g>
	<g>
		<path class="new_sp1-st0" d="M124.9,622.5c-4.7,0-9.1-1.9-12.4-5.3l-221.6-233c-3-3.2-4.7-7.4-4.7-11.8V88.4c0-6.9,4.2-13.1,10.5-15.7
			c6.4-2.6,13.7-1.2,18.6,3.7L279.1,440c6.5,6.5,6.7,16.9,0.5,23.6L137.5,617c-3.2,3.5-7.7,5.4-12.4,5.5
			C125,622.5,125,622.5,124.9,622.5z M-79.6,365.7l204.4,214.9l118.6-128l-323-323V365.7z"/>
	</g>
	<g>
		<path class="new_sp1-st0" d="M409.1,622.5c0,0-0.1,0-0.1,0c-4.7,0-9.2-2-12.4-5.5L254.5,463.6c-6.2-6.7-6-17.2,0.5-23.6L618.6,76.3
			c4.9-4.9,12.2-6.3,18.6-3.7c6.4,2.6,10.5,8.9,10.5,15.7v284.1c0,4.4-1.7,8.6-4.7,11.8l-221.6,233
			C418.2,620.6,413.7,622.5,409.1,622.5z M290.7,452.5l118.6,128l204.4-214.9V129.5L290.7,452.5z"/>
	</g>
</g>
</svg>
