<?xml version="1.0" encoding="utf-8"?>
<!-- Generator: Adobe Illustrator 22.1.0, SVG Export Plug-In . SVG Version: 6.00 Build 0)  -->
<svg version="1.1" id="Layer_2" xmlns="http://www.w3.org/2000/svg" xmlns:xlink="http://www.w3.org/1999/xlink" x="0px" y="0px"
	 viewBox="0 0 536 431.5" style="enable-background:new 0 0 536 431.5;" xml:space="preserve">
<style type="text/css">
	.st0{fill:#F6F5F4;}
</style>
<g>
	<g>
		<path class="st0" d="M-51.6,250c-5,0-9.8-2.6-12.4-7.1c-4-6.9-1.7-15.6,5.2-19.6L261.8,36.4c4.5-2.6,10-2.6,14.5,0l318.7,186.8
			c6.8,4,9.1,12.8,5.1,19.7c-4,6.8-12.8,9.1-19.7,5.1L269,65.5L-44.4,248C-46.7,249.3-49.2,250-51.6,250z"/>
	</g>
	<g>
		<path class="st0" d="M269,63.2c-7.9,0-14.4-6.4-14.4-14.4v-362.7c0-7.9,6.4-14.4,14.4-14.4s14.4,6.4,14.4,14.4V48.9
			C283.4,56.8,276.9,63.2,269,63.2z"/>
	</g>
	<g>
		<path class="st0" d="M269,425.9c-2.4,0-4.8-0.6-6.9-1.8l-320.6-176c-3.4-1.9-5.9-5-6.9-8.8c-1-3.7-0.5-7.7,1.4-11.1l320.6-549.5
			c2.6-4.4,7.3-7.1,12.4-7.1h0c5.1,0,9.8,2.7,12.4,7.2l318.7,549.5c1.9,3.3,2.4,7.3,1.4,11c-1,3.7-3.5,6.9-6.9,8.7l-318.7,176
			C273.8,425.4,271.4,425.9,269,425.9z M-31.8,230.1L269,395.2l298.9-165.1L268.9-285.3L-31.8,230.1z"/>
	</g>
</g>
</svg>
