<?xml version="1.0" encoding="utf-8"?>
<!-- Generator: Adobe Illustrator 22.1.0, SVG Export Plug-In . SVG Version: 6.00 Build 0)  -->
<svg version="1.1" id="Layer_2" xmlns="http://www.w3.org/2000/svg" xmlns:xlink="http://www.w3.org/1999/xlink" x="0px" y="0px"
	 viewBox="0 0 536 338" style="enable-background:new 0 0 536 338;" xml:space="preserve">
<style type="text/css">
	.st0{fill:#F6F5F4;}
</style>
<g>
	<path class="st0" d="M270.6,169.6 M270.6,169.6l145,254.5c2.6,4.6,2.7,10.3,0.2,15l-49.1,90.6l-16.8,31l-68.3,126
		c-2.7,5-7.7,8.2-13.7,8.1c-5.7,0-10.9-3.2-13.6-8.3l-65.5-125.8l-16.1-31L125.3,439c-2.4-4.7-2.3-10.2,0.3-14.8L270.6,169.6z
		 M384.4,432L270.6,232.2l-113.9,200l111.6,214.3L384.4,432z"/>
</g>
<g>
	<path class="st0" d="M-139.5,560.8c-5.6,0-10.7-3-13.5-7.8c-2.8-4.8-2.7-10.8,0.1-15.6l309.5-521c2.8-4.7,7.2-7.9,13.5-7.6
		c5.5,0.1,10.6,3,13.3,7.8l87.1,153l87.1-153c2.7-4.8,7.8-7.8,13.4-7.8c0,0,0.1,0,0.1,0c5.5,0,10.6,2.9,13.4,7.7l304.4,521
		c2.8,4.8,2.8,10.7,0.1,15.5c-2.8,4.8-7.9,7.8-13.4,7.8H-139.5z M366.6,529.9h281.9L371.3,55.3L270.6,232.2L169.7,55.1l-282,474.8
		h285 M207.5,529.9h123.9 M270.6,232.2"/>
</g>
</svg>
