<?xml version="1.0" encoding="utf-8"?>
<!-- Generator: Adobe Illustrator 22.1.0, SVG Export Plug-In . SVG Version: 6.00 Build 0)  -->
<svg version="1.1" id="Layer_1" xmlns="http://www.w3.org/2000/svg" xmlns:xlink="http://www.w3.org/1999/xlink" x="0px" y="0px"
	 viewBox="0 0 84.7 76.3" style="enable-background:new 0 0 84.7 76.3;" xml:space="preserve">
<style type="text/css">
	.st0{display:none;fill:none;stroke:#02153D;stroke-width:2;stroke-linecap:round;stroke-linejoin:round;stroke-miterlimit:10;}
	.st1{fill:#E8CAB2;}
	.st2{fill:#172C57;}
</style>
<g>
	<g>
		<path class="st1" d="M11.7,57.4c-0.5,0-0.9-0.2-1.2-0.7c-0.4-0.7-0.2-1.5,0.5-1.9L41.7,37c0.4-0.2,1-0.2,1.4,0l30.5,17.9
			c0.7,0.4,0.9,1.2,0.5,1.9c-0.4,0.7-1.2,0.9-1.9,0.5L42.4,39.8l-30,17.5C12.2,57.4,11.9,57.4,11.7,57.4z"/>
	</g>
	<g>
		<path class="st1" d="M42.4,39.5c-0.8,0-1.4-0.6-1.4-1.4V3.4c0-0.8,0.6-1.4,1.4-1.4s1.4,0.6,1.4,1.4v34.8
			C43.8,38.9,43.2,39.5,42.4,39.5z"/>
	</g>
	<g>
		<path class="st2" d="M42.4,74.3c-0.2,0-0.5-0.1-0.7-0.2L11,57.3c-0.3-0.2-0.6-0.5-0.7-0.8c-0.1-0.4,0-0.7,0.1-1.1L41.2,2.7
			C41.5,2.3,41.9,2,42.4,2h0c0.5,0,0.9,0.3,1.2,0.7l30.5,52.6c0.2,0.3,0.2,0.7,0.1,1.1c-0.1,0.4-0.3,0.7-0.7,0.8L43.1,74.1
			C42.9,74.2,42.7,74.3,42.4,74.3z M13.6,55.5l28.8,15.8l28.6-15.8L42.4,6.2L13.6,55.5z"/>
	</g>
</g>
</svg>
