<?xml version="1.0" encoding="utf-8"?>
<!-- Generator: Adobe Illustrator 22.1.0, SVG Export Plug-In . SVG Version: 6.00 Build 0)  -->
<svg version="1.1" id="Layer_1" xmlns="http://www.w3.org/2000/svg" xmlns:xlink="http://www.w3.org/1999/xlink" x="0px" y="0px"
	 viewBox="0 0 84.7 76.3" style="enable-background:new 0 0 84.7 76.3;" xml:space="preserve">
<style type="text/css">
	.st0{display:none;fill:none;stroke:#02153D;stroke-width:2;stroke-linecap:round;stroke-linejoin:round;stroke-miterlimit:10;}
	.st1{fill:#E8CAB2;}
	.st2{fill:#172C57;}
</style>
<g>
	<g>
		<path class="st1" d="M42.1,55.6 M42.1,55.6L28.2,31.2c-0.3-0.4-0.3-1,0-1.4l4.7-8.7l1.6-3L41,6.1c0.3-0.5,0.7-0.8,1.3-0.8
			c0.5,0,1,0.3,1.3,0.8l6.3,12l1.5,3l4.5,8.7c0.2,0.4,0.2,1,0,1.4L42.1,55.6z M31.2,30.5l10.9,19.1L53,30.5L42.3,10L31.2,30.5z"/>
	</g>
	<g>
		<path class="st2" d="M81.4,18.2c0.5,0,1,0.3,1.3,0.7s0.3,1,0,1.5L53,70.3c-0.3,0.5-0.7,0.8-1.3,0.7c-0.5,0-1-0.3-1.3-0.7
			l-8.3-14.6l-8.3,14.6C33.5,70.7,33,71,32.5,71c0,0,0,0,0,0c-0.5,0-1-0.3-1.3-0.7L2,20.4c-0.3-0.5-0.3-1,0-1.5
			c0.3-0.5,0.8-0.7,1.3-0.7H81.4z M32.9,21.1h-27l26.5,45.4l9.6-16.9l9.7,17l27-45.5H51.5 M48.1,21.1H36.3 M42.1,49.6"/>
	</g>
</g>
</svg>
