<?xml version="1.0" encoding="utf-8"?>
<!-- Generator: Adobe Illustrator 22.1.0, SVG Export Plug-In . SVG Version: 6.00 Build 0)  -->
<svg version="1.1" id="Layer_1" xmlns="http://www.w3.org/2000/svg" xmlns:xlink="http://www.w3.org/1999/xlink" x="0px" y="0px"
	 viewBox="0 0 84.7 76.3" style="enable-background:new 0 0 84.7 76.3;" xml:space="preserve">
<style type="text/css">
	.st0{display:none;fill:none;stroke:#02153D;stroke-width:2;stroke-linecap:round;stroke-linejoin:round;stroke-miterlimit:10;}
	.st1{fill:#E8CAB2;}
	.st2{fill:#172C57;}
</style>
<g>
	<g>
		<path class="st1" d="M73.9,44.8c-0.4,0-0.7-0.1-1-0.4L42.3,14.9L11.8,44.4c-0.6,0.6-1.5,0.6-2.1,0c-0.6-0.6-0.6-1.5,0-2.1
			l31.5-30.5c0.6-0.6,1.5-0.6,2.1,0l31.5,30.5c0.6,0.6,0.6,1.5,0,2.1C74.6,44.7,74.2,44.8,73.9,44.8z"/>
	</g>
	<g>
		<path class="st2" d="M30,65c-0.4,0-0.8-0.2-1.1-0.5L9.7,44.4c-0.3-0.3-0.4-0.6-0.4-1V18.7c0-0.6,0.4-1.1,0.9-1.4
			c0.6-0.2,1.2-0.1,1.6,0.3l31.5,31.5c0.6,0.6,0.6,1.5,0,2L31.1,64.5C30.8,64.8,30.4,65,30,65C30,65,30,65,30,65z M12.3,42.7
			L30,61.4l10.3-11.1l-28-28V42.7z"/>
	</g>
	<g>
		<path class="st2" d="M54.6,65C54.6,65,54.6,65,54.6,65c-0.4,0-0.8-0.2-1.1-0.5L41.2,51.2c-0.5-0.6-0.5-1.5,0-2l31.5-31.5
			c0.4-0.4,1.1-0.5,1.6-0.3c0.6,0.2,0.9,0.8,0.9,1.4v24.6c0,0.4-0.1,0.7-0.4,1L55.7,64.6C55.4,64.8,55.1,65,54.6,65z M44.4,50.3
			l10.3,11.1l17.7-18.6V22.3L44.4,50.3z"/>
	</g>
</g>
</svg>
